{
.appVersion = "895";
copyright = "SIL OPEN FONT LICENSE Version 1.1";
date = "2017-04-19 14:51:12 +0000";
designer = "Trevor Bullock";
familyName = "KA Old Style Combo";
fontMaster = (
{
ascender = 800;
capHeight = 700;
descender = -200;
id = "4D144F8D-878C-4AC1-82CB-BE7AA35E5AC4";
visible = 1;
xHeight = 500;
},
{
ascender = 800;
capHeight = 700;
descender = -200;
id = "58A037AB-7B5C-4700-A231-207A2D0F9E5C";
xHeight = 500;
}
);
glyphs = (
{
glyphname = C;
lastChange = "2019-02-22 04:33:48 +0000";
layers = (
{
layerId = "4D144F8D-878C-4AC1-82CB-BE7AA35E5AC4";
paths = (
{
closed = 1;
nodes = (
"1069 -44 OFFCURVE",
"1036 -33 OFFCURVE",
"1015 -28 CURVE SMOOTH",
"970 -17 OFFCURVE",
"926 -11 OFFCURVE",
"857 -7 CURVE SMOOTH",
"812 -4 OFFCURVE",
"586 -6 OFFCURVE",
"463 -9 CURVE SMOOTH",
"375 -12 OFFCURVE",
"299 -6 OFFCURVE",
"223 7 CURVE SMOOTH",
"109 29 OFFCURVE",
"39 68 OFFCURVE",
"31 118 CURVE SMOOTH",
"28 141 OFFCURVE",
"42 154 OFFCURVE",
"57 145 CURVE SMOOTH",
"85 129 OFFCURVE",
"154 117 OFFCURVE",
"226 108 CURVE SMOOTH",
"276 102 OFFCURVE",
"435 103 OFFCURVE",
"610 107 CURVE SMOOTH",
"774 113 OFFCURVE",
"818 112 OFFCURVE",
"851 107 CURVE SMOOTH",
"939 94 OFFCURVE",
"1014 58 OFFCURVE",
"1081 3 CURVE SMOOTH",
"1106 -18 OFFCURVE",
"1099 -64 OFFCURVE",
"1076 -49 CURVE SMOOTH"
);
},
{
closed = 1;
nodes = (
"431 197 OFFCURVE",
"440 219 OFFCURVE",
"472 221 CURVE SMOOTH",
"498 223 OFFCURVE",
"500 226 OFFCURVE",
"497 250 CURVE SMOOTH",
"493 284 OFFCURVE",
"460 303 OFFCURVE",
"387 313 CURVE SMOOTH",
"358 317 OFFCURVE",
"329 323 OFFCURVE",
"324 329 CURVE SMOOTH",
"310 346 OFFCURVE",
"324 364 OFFCURVE",
"352 364 CURVE SMOOTH",
"389 364 OFFCURVE",
"504 335 OFFCURVE",
"552 315 CURVE SMOOTH",
"630 282 OFFCURVE",
"655 226 OFFCURVE",
"604 201 CURVE SMOOTH",
"578 188 OFFCURVE",
"494 180 OFFCURVE",
"460 189 CURVE SMOOTH"
);
},
{
closed = 1;
nodes = (
"167 222 OFFCURVE",
"101 256 OFFCURVE",
"84 295 CURVE SMOOTH",
"80 304 OFFCURVE",
"81 324 OFFCURVE",
"86 340 CURVE SMOOTH",
"95 368 OFFCURVE",
"117 384 OFFCURVE",
"174 403 CURVE SMOOTH",
"346 460 OFFCURVE",
"443 454 OFFCURVE",
"639 427 CURVE SMOOTH",
"770 409 OFFCURVE",
"855 377 OFFCURVE",
"899 333 CURVE SMOOTH",
"924 308 OFFCURVE",
"932 289 OFFCURVE",
"932 252 CURVE SMOOTH",
"932 210 OFFCURVE",
"916 205 OFFCURVE",
"846 197 CURVE SMOOTH",
"811 193 OFFCURVE",
"703 207 OFFCURVE",
"688 218 CURVE SMOOTH",
"677 226 OFFCURVE",
"675 229 OFFCURVE",
"679 236 CURVE SMOOTH",
"683 243 OFFCURVE",
"695 245 OFFCURVE",
"721 248 CURVE SMOOTH",
"750 251 OFFCURVE",
"765 259 OFFCURVE",
"767 277 CURVE SMOOTH",
"768 287 OFFCURVE",
"763 296 OFFCURVE",
"743 317 CURVE SMOOTH",
"689 373 OFFCURVE",
"590 401 OFFCURVE",
"449 401 CURVE SMOOTH",
"308 401 OFFCURVE",
"228 372 OFFCURVE",
"222 317 CURVE SMOOTH",
"218 282 OFFCURVE",
"252 252 OFFCURVE",
"323 240 CURVE SMOOTH",
"335 238 OFFCURVE",
"344 234 OFFCURVE",
"346 232 CURVE SMOOTH",
"353 225 OFFCURVE",
"346 200 OFFCURVE",
"336 197 CURVE SMOOTH",
"329 195 OFFCURVE",
"332 196 OFFCURVE",
"287 203 CURVE SMOOTH"
);
}
);
width = 1127;
},
{
layerId = "58A037AB-7B5C-4700-A231-207A2D0F9E5C";
paths = (
{
closed = 1;
nodes = (
"1069 -44 OFFCURVE",
"1036 -33 OFFCURVE",
"1015 -28 CURVE SMOOTH",
"970 -17 OFFCURVE",
"926 -11 OFFCURVE",
"857 -7 CURVE SMOOTH",
"812 -4 OFFCURVE",
"586 -6 OFFCURVE",
"463 -9 CURVE SMOOTH",
"375 -12 OFFCURVE",
"299 -6 OFFCURVE",
"223 7 CURVE SMOOTH",
"109 29 OFFCURVE",
"39 68 OFFCURVE",
"31 118 CURVE SMOOTH",
"28 141 OFFCURVE",
"42 154 OFFCURVE",
"57 145 CURVE SMOOTH",
"85 129 OFFCURVE",
"154 117 OFFCURVE",
"226 108 CURVE SMOOTH",
"276 102 OFFCURVE",
"435 103 OFFCURVE",
"610 107 CURVE SMOOTH",
"774 113 OFFCURVE",
"818 112 OFFCURVE",
"851 107 CURVE SMOOTH",
"939 94 OFFCURVE",
"1014 58 OFFCURVE",
"1081 3 CURVE SMOOTH",
"1106 -18 OFFCURVE",
"1099 -64 OFFCURVE",
"1076 -49 CURVE SMOOTH"
);
},
{
closed = 1;
nodes = (
"431 197 OFFCURVE",
"440 219 OFFCURVE",
"472 221 CURVE SMOOTH",
"498 223 OFFCURVE",
"500 226 OFFCURVE",
"497 250 CURVE SMOOTH",
"493 284 OFFCURVE",
"460 303 OFFCURVE",
"387 313 CURVE SMOOTH",
"358 317 OFFCURVE",
"329 323 OFFCURVE",
"324 329 CURVE SMOOTH",
"310 346 OFFCURVE",
"324 364 OFFCURVE",
"352 364 CURVE SMOOTH",
"389 364 OFFCURVE",
"504 335 OFFCURVE",
"552 315 CURVE SMOOTH",
"630 282 OFFCURVE",
"655 226 OFFCURVE",
"604 201 CURVE SMOOTH",
"578 188 OFFCURVE",
"494 180 OFFCURVE",
"460 189 CURVE SMOOTH"
);
},
{
closed = 1;
nodes = (
"167 222 OFFCURVE",
"101 256 OFFCURVE",
"84 295 CURVE SMOOTH",
"80 304 OFFCURVE",
"81 324 OFFCURVE",
"86 340 CURVE SMOOTH",
"95 368 OFFCURVE",
"117 384 OFFCURVE",
"174 403 CURVE SMOOTH",
"346 460 OFFCURVE",
"443 454 OFFCURVE",
"639 427 CURVE SMOOTH",
"770 409 OFFCURVE",
"855 377 OFFCURVE",
"899 333 CURVE SMOOTH",
"924 308 OFFCURVE",
"932 289 OFFCURVE",
"932 252 CURVE SMOOTH",
"932 210 OFFCURVE",
"916 205 OFFCURVE",
"846 197 CURVE SMOOTH",
"811 193 OFFCURVE",
"703 207 OFFCURVE",
"688 218 CURVE SMOOTH",
"677 226 OFFCURVE",
"675 229 OFFCURVE",
"679 236 CURVE SMOOTH",
"683 243 OFFCURVE",
"695 245 OFFCURVE",
"721 248 CURVE SMOOTH",
"750 251 OFFCURVE",
"765 259 OFFCURVE",
"767 277 CURVE SMOOTH",
"768 287 OFFCURVE",
"763 296 OFFCURVE",
"743 317 CURVE SMOOTH",
"689 373 OFFCURVE",
"590 401 OFFCURVE",
"449 401 CURVE SMOOTH",
"308 401 OFFCURVE",
"228 372 OFFCURVE",
"222 317 CURVE SMOOTH",
"218 282 OFFCURVE",
"252 252 OFFCURVE",
"323 240 CURVE SMOOTH",
"335 238 OFFCURVE",
"344 234 OFFCURVE",
"346 232 CURVE SMOOTH",
"353 225 OFFCURVE",
"346 200 OFFCURVE",
"336 197 CURVE SMOOTH",
"329 195 OFFCURVE",
"332 196 OFFCURVE",
"287 203 CURVE SMOOTH"
);
}
);
width = 1127;
}
);
unicode = 0043;
},
{
glyphname = V;
lastChange = "2019-02-22 05:05:01 +0000";
layers = (
{
components = (
{
name = oligon;
transform = "{1, 0, 0, 1, 130, 0}";
}
);
layerId = "4D144F8D-878C-4AC1-82CB-BE7AA35E5AC4";
paths = (
{
closed = 1;
nodes = (
"600 201 OFFCURVE",
"585 205 OFFCURVE",
"570 207 CURVE",
"542 214 OFFCURVE",
"539 229 OFFCURVE",
"559 267 CURVE SMOOTH",
"575 298 OFFCURVE",
"574 298 OFFCURVE",
"495 308 CURVE SMOOTH",
"471 311 OFFCURVE",
"417 325 OFFCURVE",
"378 338 CURVE SMOOTH",
"283 370 OFFCURVE",
"232 416 OFFCURVE",
"197 511 CURVE SMOOTH",
"162 605 OFFCURVE",
"137 630 OFFCURVE",
"87 630 CURVE SMOOTH",
"52 630 OFFCURVE",
"45 634 OFFCURVE",
"36 654 CURVE",
"17 694 OFFCURVE",
"43 701 OFFCURVE",
"146 684 CURVE SMOOTH",
"248 667 OFFCURVE",
"316 615 OFFCURVE",
"338 537 CURVE SMOOTH",
"363 447 OFFCURVE",
"436 387 OFFCURVE",
"532 371 CURVE SMOOTH",
"569 365 OFFCURVE",
"570 365 OFFCURVE",
"577 396 CURVE SMOOTH",
"586 438 OFFCURVE",
"597 449 OFFCURVE",
"635 449 CURVE SMOOTH",
"708 449 OFFCURVE",
"722 434 OFFCURVE",
"694 389 CURVE",
"686 377 OFFCURVE",
"682 363 OFFCURVE",
"685 360 CURVE",
"688 357 OFFCURVE",
"764 351 OFFCURVE",
"852 347 CURVE SMOOTH",
"1063 337 OFFCURVE",
"1135 320 OFFCURVE",
"1135 276 CURVE SMOOTH",
"1135 251 OFFCURVE",
"1122 248 OFFCURVE",
"1083 263 CURVE SMOOTH",
"1054 274 OFFCURVE",
"1007 278 OFFCURVE",
"864 279 CURVE SMOOTH",
"702 280 OFFCURVE",
"682 279 OFFCURVE",
"682 266 CURVE SMOOTH",
"682 235 OFFCURVE",
"633 193 OFFCURVE",
"605 200 CURVE"
);
}
);
width = 1257;
},
{
components = (
{
name = oligon;
transform = "{1, 0, 0, 1, 130, 0}";
},
{
name = hamili;
transform = "{1, 0, 0, 1, 0, 260}";
}
);
layerId = "58A037AB-7B5C-4700-A231-207A2D0F9E5C";
width = 1257;
}
);
unicode = 0056;
},
{
glyphname = X;
lastChange = "2019-02-22 04:33:48 +0000";
layers = (
{
components = (
{
name = oligon;
}
);
layerId = "4D144F8D-878C-4AC1-82CB-BE7AA35E5AC4";
paths = (
{
closed = 1;
nodes = (
"404 227 OFFCURVE",
"419 254 OFFCURVE",
"474 264 CURVE SMOOTH",
"527 274 OFFCURVE",
"536 295 OFFCURVE",
"502 329 CURVE SMOOTH",
"473 358 OFFCURVE",
"411 372 OFFCURVE",
"282 379 CURVE SMOOTH",
"163 385 OFFCURVE",
"139 395 OFFCURVE",
"154 434 CURVE SMOOTH",
"174 487 OFFCURVE",
"624 402 OFFCURVE",
"702 329 CURVE SMOOTH",
"755 280 OFFCURVE",
"735 244 OFFCURVE",
"642 216 CURVE SMOOTH",
"582 198 OFFCURVE",
"480 196 OFFCURVE",
"443 211 CURVE SMOOTH"
);
}
);
width = 1127;
},
{
components = (
{
name = oligon;
}
);
layerId = "58A037AB-7B5C-4700-A231-207A2D0F9E5C";
paths = (
{
closed = 1;
nodes = (
"404 227 OFFCURVE",
"419 254 OFFCURVE",
"474 264 CURVE SMOOTH",
"527 274 OFFCURVE",
"536 295 OFFCURVE",
"502 329 CURVE SMOOTH",
"473 358 OFFCURVE",
"411 372 OFFCURVE",
"282 379 CURVE SMOOTH",
"163 385 OFFCURVE",
"139 395 OFFCURVE",
"154 434 CURVE SMOOTH",
"174 487 OFFCURVE",
"624 402 OFFCURVE",
"702 329 CURVE SMOOTH",
"755 280 OFFCURVE",
"735 244 OFFCURVE",
"642 216 CURVE SMOOTH",
"582 198 OFFCURVE",
"480 196 OFFCURVE",
"443 211 CURVE SMOOTH"
);
}
);
width = 1127;
}
);
unicode = 0058;
},
{
glyphname = c;
lastChange = "2019-02-22 04:33:48 +0000";
layers = (
{
components = (
{
name = oligon;
}
);
layerId = "4D144F8D-878C-4AC1-82CB-BE7AA35E5AC4";
paths = (
{
closed = 1;
nodes = (
"167 210 OFFCURVE",
"100 244 OFFCURVE",
"84 284 CURVE SMOOTH",
"81 294 OFFCURVE",
"81 313 OFFCURVE",
"86 330 CURVE SMOOTH",
"94 357 OFFCURVE",
"117 374 OFFCURVE",
"174 392 CURVE SMOOTH",
"347 449 OFFCURVE",
"443 442 OFFCURVE",
"639 416 CURVE SMOOTH",
"770 399 OFFCURVE",
"855 367 OFFCURVE",
"899 323 CURVE SMOOTH",
"924 298 OFFCURVE",
"932 279 OFFCURVE",
"932 242 CURVE SMOOTH",
"932 199 OFFCURVE",
"916 195 OFFCURVE",
"846 186 CURVE SMOOTH",
"811 181 OFFCURVE",
"703 197 OFFCURVE",
"688 207 CURVE SMOOTH",
"677 214 OFFCURVE",
"675 218 OFFCURVE",
"679 225 CURVE SMOOTH",
"684 232 OFFCURVE",
"695 235 OFFCURVE",
"721 237 CURVE SMOOTH",
"750 240 OFFCURVE",
"766 249 OFFCURVE",
"767 266 CURVE SMOOTH",
"769 276 OFFCURVE",
"763 286 OFFCURVE",
"743 306 CURVE SMOOTH",
"690 363 OFFCURVE",
"590 390 OFFCURVE",
"449 390 CURVE SMOOTH",
"308 390 OFFCURVE",
"228 361 OFFCURVE",
"222 306 CURVE SMOOTH",
"219 272 OFFCURVE",
"252 243 OFFCURVE",
"323 229 CURVE SMOOTH",
"335 227 OFFCURVE",
"344 223 OFFCURVE",
"346 221 CURVE SMOOTH",
"353 214 OFFCURVE",
"346 190 OFFCURVE",
"336 186 CURVE SMOOTH",
"329 184 OFFCURVE",
"332 185 OFFCURVE",
"287 192 CURVE SMOOTH"
);
}
);
width = 1127;
},
{
components = (
{
name = oligon;
}
);
layerId = "58A037AB-7B5C-4700-A231-207A2D0F9E5C";
paths = (
{
closed = 1;
nodes = (
"167 210 OFFCURVE",
"100 244 OFFCURVE",
"84 284 CURVE SMOOTH",
"81 294 OFFCURVE",
"81 313 OFFCURVE",
"86 330 CURVE SMOOTH",
"94 357 OFFCURVE",
"117 374 OFFCURVE",
"174 392 CURVE SMOOTH",
"347 449 OFFCURVE",
"443 442 OFFCURVE",
"639 416 CURVE SMOOTH",
"770 399 OFFCURVE",
"855 367 OFFCURVE",
"899 323 CURVE SMOOTH",
"924 298 OFFCURVE",
"932 279 OFFCURVE",
"932 242 CURVE SMOOTH",
"932 199 OFFCURVE",
"916 195 OFFCURVE",
"846 186 CURVE SMOOTH",
"811 181 OFFCURVE",
"703 197 OFFCURVE",
"688 207 CURVE SMOOTH",
"677 214 OFFCURVE",
"675 218 OFFCURVE",
"679 225 CURVE SMOOTH",
"684 232 OFFCURVE",
"695 235 OFFCURVE",
"721 237 CURVE SMOOTH",
"750 240 OFFCURVE",
"766 249 OFFCURVE",
"767 266 CURVE SMOOTH",
"769 276 OFFCURVE",
"763 286 OFFCURVE",
"743 306 CURVE SMOOTH",
"690 363 OFFCURVE",
"590 390 OFFCURVE",
"449 390 CURVE SMOOTH",
"308 390 OFFCURVE",
"228 361 OFFCURVE",
"222 306 CURVE SMOOTH",
"219 272 OFFCURVE",
"252 243 OFFCURVE",
"323 229 CURVE SMOOTH",
"335 227 OFFCURVE",
"344 223 OFFCURVE",
"346 221 CURVE SMOOTH",
"353 214 OFFCURVE",
"346 190 OFFCURVE",
"336 186 CURVE SMOOTH",
"329 184 OFFCURVE",
"332 185 OFFCURVE",
"287 192 CURVE SMOOTH"
);
}
);
width = 1127;
}
);
unicode = 0063;
},
{
glyphname = i;
lastChange = "2019-02-22 04:33:48 +0000";
layers = (
{
layerId = "4D144F8D-878C-4AC1-82CB-BE7AA35E5AC4";
paths = (
{
closed = 1;
nodes = (
"729 189 OFFCURVE",
"712 213 OFFCURVE",
"696 266 CURVE SMOOTH",
"673 341 OFFCURVE",
"667 353 OFFCURVE",
"650 359 CURVE SMOOTH",
"639 363 OFFCURVE",
"633 370 OFFCURVE",
"635 374 CURVE SMOOTH",
"641 387 OFFCURVE",
"679 392 OFFCURVE",
"725 386 CURVE SMOOTH",
"777 379 OFFCURVE",
"792 364 OFFCURVE",
"813 293 CURVE SMOOTH",
"835 219 OFFCURVE",
"842 208 OFFCURVE",
"856 203 CURVE SMOOTH",
"871 198 OFFCURVE",
"873 183 OFFCURVE",
"857 176 CURVE SMOOTH",
"843 170 OFFCURVE",
"787 171 OFFCURVE",
"761 179 CURVE SMOOTH"
);
},
{
closed = 1;
nodes = (
"529 189 OFFCURVE",
"512 213 OFFCURVE",
"496 266 CURVE SMOOTH",
"473 341 OFFCURVE",
"467 353 OFFCURVE",
"450 359 CURVE SMOOTH",
"439 363 OFFCURVE",
"433 370 OFFCURVE",
"435 374 CURVE SMOOTH",
"441 387 OFFCURVE",
"479 392 OFFCURVE",
"525 386 CURVE SMOOTH",
"577 379 OFFCURVE",
"592 364 OFFCURVE",
"613 293 CURVE SMOOTH",
"635 219 OFFCURVE",
"642 208 OFFCURVE",
"656 203 CURVE SMOOTH",
"671 198 OFFCURVE",
"673 183 OFFCURVE",
"657 176 CURVE SMOOTH",
"643 170 OFFCURVE",
"587 171 OFFCURVE",
"561 179 CURVE SMOOTH"
);
},
{
closed = 1;
nodes = (
"176 219 OFFCURVE",
"118 245 OFFCURVE",
"87 262 CURVE",
"30 290 LINE",
"74 297 LINE SMOOTH",
"98 301 OFFCURVE",
"139 317 OFFCURVE",
"168 334 CURVE SMOOTH",
"242 377 OFFCURVE",
"269 435 OFFCURVE",
"281 573 CURVE SMOOTH",
"291 692 OFFCURVE",
"315 752 OFFCURVE",
"358 774 CURVE SMOOTH",
"393 792 OFFCURVE",
"415 792 OFFCURVE",
"441 773 CURVE",
"465 757 OFFCURVE",
"470 708 OFFCURVE",
"450 696 CURVE SMOOTH",
"419 678 OFFCURVE",
"407 639 OFFCURVE",
"402 541 CURVE SMOOTH",
"399 485 OFFCURVE",
"392 427 OFFCURVE",
"386 412 CURVE SMOOTH",
"362 352 OFFCURVE",
"277 286 OFFCURVE",
"196 269 CURVE SMOOTH",
"162 262 LINE",
"205 249 LINE SMOOTH",
"256 234 OFFCURVE",
"322 197 OFFCURVE",
"323 184 CURVE SMOOTH",
"325 164 OFFCURVE",
"283 170 OFFCURVE",
"215 201 CURVE SMOOTH"
);
},
{
closed = 1;
nodes = (
"1259 -44 OFFCURVE",
"1226 -33 OFFCURVE",
"1205 -28 CURVE SMOOTH",
"1160 -17 OFFCURVE",
"1116 -12 OFFCURVE",
"1047 -7 CURVE SMOOTH",
"1002 -4 OFFCURVE",
"646 -6 OFFCURVE",
"523 -9 CURVE SMOOTH",
"435 -11 OFFCURVE",
"359 -6 OFFCURVE",
"283 7 CURVE SMOOTH",
"169 27 OFFCURVE",
"100 68 OFFCURVE",
"91 118 CURVE SMOOTH",
"87 141 OFFCURVE",
"102 154 OFFCURVE",
"117 145 CURVE SMOOTH",
"145 128 OFFCURVE",
"214 117 OFFCURVE",
"286 108 CURVE SMOOTH",
"336 102 OFFCURVE",
"495 103 OFFCURVE",
"670 107 CURVE SMOOTH",
"834 111 OFFCURVE",
"1008 112 OFFCURVE",
"1041 107 CURVE SMOOTH",
"1129 94 OFFCURVE",
"1205 59 OFFCURVE",
"1271 3 CURVE SMOOTH",
"1296 -18 OFFCURVE",
"1288 -65 OFFCURVE",
"1266 -49 CURVE SMOOTH"
);
}
);
width = 1316;
},
{
layerId = "58A037AB-7B5C-4700-A231-207A2D0F9E5C";
paths = (
{
closed = 1;
nodes = (
"729 189 OFFCURVE",
"712 213 OFFCURVE",
"696 266 CURVE SMOOTH",
"673 341 OFFCURVE",
"667 353 OFFCURVE",
"650 359 CURVE SMOOTH",
"639 363 OFFCURVE",
"633 370 OFFCURVE",
"635 374 CURVE SMOOTH",
"641 387 OFFCURVE",
"679 392 OFFCURVE",
"725 386 CURVE SMOOTH",
"777 379 OFFCURVE",
"792 364 OFFCURVE",
"813 293 CURVE SMOOTH",
"835 219 OFFCURVE",
"842 208 OFFCURVE",
"856 203 CURVE SMOOTH",
"871 198 OFFCURVE",
"873 183 OFFCURVE",
"857 176 CURVE SMOOTH",
"843 170 OFFCURVE",
"787 171 OFFCURVE",
"761 179 CURVE SMOOTH"
);
},
{
closed = 1;
nodes = (
"529 189 OFFCURVE",
"512 213 OFFCURVE",
"496 266 CURVE SMOOTH",
"473 341 OFFCURVE",
"467 353 OFFCURVE",
"450 359 CURVE SMOOTH",
"439 363 OFFCURVE",
"433 370 OFFCURVE",
"435 374 CURVE SMOOTH",
"441 387 OFFCURVE",
"479 392 OFFCURVE",
"525 386 CURVE SMOOTH",
"577 379 OFFCURVE",
"592 364 OFFCURVE",
"613 293 CURVE SMOOTH",
"635 219 OFFCURVE",
"642 208 OFFCURVE",
"656 203 CURVE SMOOTH",
"671 198 OFFCURVE",
"673 183 OFFCURVE",
"657 176 CURVE SMOOTH",
"643 170 OFFCURVE",
"587 171 OFFCURVE",
"561 179 CURVE SMOOTH"
);
},
{
closed = 1;
nodes = (
"176 219 OFFCURVE",
"118 245 OFFCURVE",
"87 262 CURVE",
"30 290 LINE",
"74 297 LINE SMOOTH",
"98 301 OFFCURVE",
"139 317 OFFCURVE",
"168 334 CURVE SMOOTH",
"242 377 OFFCURVE",
"269 435 OFFCURVE",
"281 573 CURVE SMOOTH",
"291 692 OFFCURVE",
"315 752 OFFCURVE",
"358 774 CURVE SMOOTH",
"393 792 OFFCURVE",
"415 792 OFFCURVE",
"441 773 CURVE",
"465 757 OFFCURVE",
"470 708 OFFCURVE",
"450 696 CURVE SMOOTH",
"419 678 OFFCURVE",
"407 639 OFFCURVE",
"402 541 CURVE SMOOTH",
"399 485 OFFCURVE",
"392 427 OFFCURVE",
"386 412 CURVE SMOOTH",
"362 352 OFFCURVE",
"277 286 OFFCURVE",
"196 269 CURVE SMOOTH",
"162 262 LINE",
"205 249 LINE SMOOTH",
"256 234 OFFCURVE",
"322 197 OFFCURVE",
"323 184 CURVE SMOOTH",
"325 164 OFFCURVE",
"283 170 OFFCURVE",
"215 201 CURVE SMOOTH"
);
},
{
closed = 1;
nodes = (
"1259 -44 OFFCURVE",
"1226 -33 OFFCURVE",
"1205 -28 CURVE SMOOTH",
"1160 -17 OFFCURVE",
"1116 -12 OFFCURVE",
"1047 -7 CURVE SMOOTH",
"1002 -4 OFFCURVE",
"646 -6 OFFCURVE",
"523 -9 CURVE SMOOTH",
"435 -11 OFFCURVE",
"359 -6 OFFCURVE",
"283 7 CURVE SMOOTH",
"169 27 OFFCURVE",
"100 68 OFFCURVE",
"91 118 CURVE SMOOTH",
"87 141 OFFCURVE",
"102 154 OFFCURVE",
"117 145 CURVE SMOOTH",
"145 128 OFFCURVE",
"214 117 OFFCURVE",
"286 108 CURVE SMOOTH",
"336 102 OFFCURVE",
"495 103 OFFCURVE",
"670 107 CURVE SMOOTH",
"834 111 OFFCURVE",
"1008 112 OFFCURVE",
"1041 107 CURVE SMOOTH",
"1129 94 OFFCURVE",
"1205 59 OFFCURVE",
"1271 3 CURVE SMOOTH",
"1296 -18 OFFCURVE",
"1288 -65 OFFCURVE",
"1266 -49 CURVE SMOOTH"
);
}
);
width = 1316;
}
);
unicode = 0069;
},
{
glyphname = u;
lastChange = "2019-02-22 04:33:48 +0000";
layers = (
{
layerId = "4D144F8D-878C-4AC1-82CB-BE7AA35E5AC4";
paths = (
{
closed = 1;
nodes = (
"729 189 OFFCURVE",
"712 213 OFFCURVE",
"696 266 CURVE SMOOTH",
"673 341 OFFCURVE",
"667 353 OFFCURVE",
"650 359 CURVE SMOOTH",
"639 363 OFFCURVE",
"633 370 OFFCURVE",
"635 374 CURVE SMOOTH",
"641 387 OFFCURVE",
"679 392 OFFCURVE",
"725 386 CURVE SMOOTH",
"777 379 OFFCURVE",
"792 364 OFFCURVE",
"813 293 CURVE SMOOTH",
"835 219 OFFCURVE",
"842 208 OFFCURVE",
"856 203 CURVE SMOOTH",
"871 198 OFFCURVE",
"873 183 OFFCURVE",
"857 176 CURVE SMOOTH",
"843 170 OFFCURVE",
"787 171 OFFCURVE",
"761 179 CURVE SMOOTH"
);
},
{
closed = 1;
nodes = (
"529 189 OFFCURVE",
"512 213 OFFCURVE",
"496 266 CURVE SMOOTH",
"473 341 OFFCURVE",
"467 353 OFFCURVE",
"450 359 CURVE SMOOTH",
"439 363 OFFCURVE",
"433 370 OFFCURVE",
"435 374 CURVE SMOOTH",
"441 387 OFFCURVE",
"479 392 OFFCURVE",
"525 386 CURVE SMOOTH",
"577 379 OFFCURVE",
"592 364 OFFCURVE",
"613 293 CURVE SMOOTH",
"635 219 OFFCURVE",
"642 208 OFFCURVE",
"656 203 CURVE SMOOTH",
"671 198 OFFCURVE",
"673 183 OFFCURVE",
"657 176 CURVE SMOOTH",
"643 170 OFFCURVE",
"587 171 OFFCURVE",
"561 179 CURVE SMOOTH"
);
},
{
closed = 1;
nodes = (
"1259 -44 OFFCURVE",
"1226 -33 OFFCURVE",
"1205 -28 CURVE SMOOTH",
"1160 -17 OFFCURVE",
"1116 -12 OFFCURVE",
"1047 -7 CURVE SMOOTH",
"1002 -4 OFFCURVE",
"646 -6 OFFCURVE",
"523 -9 CURVE SMOOTH",
"435 -11 OFFCURVE",
"359 -6 OFFCURVE",
"283 7 CURVE SMOOTH",
"169 27 OFFCURVE",
"100 68 OFFCURVE",
"91 118 CURVE SMOOTH",
"87 141 OFFCURVE",
"102 154 OFFCURVE",
"117 145 CURVE SMOOTH",
"145 128 OFFCURVE",
"214 117 OFFCURVE",
"286 108 CURVE SMOOTH",
"336 102 OFFCURVE",
"495 103 OFFCURVE",
"670 107 CURVE SMOOTH",
"834 111 OFFCURVE",
"1008 112 OFFCURVE",
"1041 107 CURVE SMOOTH",
"1129 94 OFFCURVE",
"1205 59 OFFCURVE",
"1271 3 CURVE SMOOTH",
"1296 -18 OFFCURVE",
"1288 -65 OFFCURVE",
"1266 -49 CURVE SMOOTH"
);
},
{
closed = 1;
nodes = (
"876 290 LINE",
"920 297 LINE SMOOTH",
"944 301 OFFCURVE",
"985 317 OFFCURVE",
"1014 334 CURVE SMOOTH",
"1088 377 OFFCURVE",
"1115 435 OFFCURVE",
"1127 573 CURVE SMOOTH",
"1137 692 OFFCURVE",
"1161 752 OFFCURVE",
"1204 774 CURVE SMOOTH",
"1239 792 OFFCURVE",
"1261 792 OFFCURVE",
"1287 773 CURVE SMOOTH",
"1311 756 OFFCURVE",
"1316 708 OFFCURVE",
"1296 696 CURVE SMOOTH",
"1265 678 OFFCURVE",
"1253 639 OFFCURVE",
"1248 541 CURVE SMOOTH",
"1245 485 OFFCURVE",
"1238 427 OFFCURVE",
"1232 412 CURVE SMOOTH",
"1208 352 OFFCURVE",
"1123 286 OFFCURVE",
"1042 269 CURVE SMOOTH",
"1008 262 LINE",
"1051 249 LINE SMOOTH",
"1102 234 OFFCURVE",
"1168 197 OFFCURVE",
"1169 184 CURVE SMOOTH",
"1171 164 OFFCURVE",
"1128 169 OFFCURVE",
"1061 201 CURVE SMOOTH"
);
}
);
width = 1338;
},
{
layerId = "58A037AB-7B5C-4700-A231-207A2D0F9E5C";
paths = (
{
closed = 1;
nodes = (
"729 189 OFFCURVE",
"712 213 OFFCURVE",
"696 266 CURVE SMOOTH",
"673 341 OFFCURVE",
"667 353 OFFCURVE",
"650 359 CURVE SMOOTH",
"639 363 OFFCURVE",
"633 370 OFFCURVE",
"635 374 CURVE SMOOTH",
"641 387 OFFCURVE",
"679 392 OFFCURVE",
"725 386 CURVE SMOOTH",
"777 379 OFFCURVE",
"792 364 OFFCURVE",
"813 293 CURVE SMOOTH",
"835 219 OFFCURVE",
"842 208 OFFCURVE",
"856 203 CURVE SMOOTH",
"871 198 OFFCURVE",
"873 183 OFFCURVE",
"857 176 CURVE SMOOTH",
"843 170 OFFCURVE",
"787 171 OFFCURVE",
"761 179 CURVE SMOOTH"
);
},
{
closed = 1;
nodes = (
"529 189 OFFCURVE",
"512 213 OFFCURVE",
"496 266 CURVE SMOOTH",
"473 341 OFFCURVE",
"467 353 OFFCURVE",
"450 359 CURVE SMOOTH",
"439 363 OFFCURVE",
"433 370 OFFCURVE",
"435 374 CURVE SMOOTH",
"441 387 OFFCURVE",
"479 392 OFFCURVE",
"525 386 CURVE SMOOTH",
"577 379 OFFCURVE",
"592 364 OFFCURVE",
"613 293 CURVE SMOOTH",
"635 219 OFFCURVE",
"642 208 OFFCURVE",
"656 203 CURVE SMOOTH",
"671 198 OFFCURVE",
"673 183 OFFCURVE",
"657 176 CURVE SMOOTH",
"643 170 OFFCURVE",
"587 171 OFFCURVE",
"561 179 CURVE SMOOTH"
);
},
{
closed = 1;
nodes = (
"1259 -44 OFFCURVE",
"1226 -33 OFFCURVE",
"1205 -28 CURVE SMOOTH",
"1160 -17 OFFCURVE",
"1116 -12 OFFCURVE",
"1047 -7 CURVE SMOOTH",
"1002 -4 OFFCURVE",
"646 -6 OFFCURVE",
"523 -9 CURVE SMOOTH",
"435 -11 OFFCURVE",
"359 -6 OFFCURVE",
"283 7 CURVE SMOOTH",
"169 27 OFFCURVE",
"100 68 OFFCURVE",
"91 118 CURVE SMOOTH",
"87 141 OFFCURVE",
"102 154 OFFCURVE",
"117 145 CURVE SMOOTH",
"145 128 OFFCURVE",
"214 117 OFFCURVE",
"286 108 CURVE SMOOTH",
"336 102 OFFCURVE",
"495 103 OFFCURVE",
"670 107 CURVE SMOOTH",
"834 111 OFFCURVE",
"1008 112 OFFCURVE",
"1041 107 CURVE SMOOTH",
"1129 94 OFFCURVE",
"1205 59 OFFCURVE",
"1271 3 CURVE SMOOTH",
"1296 -18 OFFCURVE",
"1288 -65 OFFCURVE",
"1266 -49 CURVE SMOOTH"
);
},
{
closed = 1;
nodes = (
"876 290 LINE",
"920 297 LINE SMOOTH",
"944 301 OFFCURVE",
"985 317 OFFCURVE",
"1014 334 CURVE SMOOTH",
"1088 377 OFFCURVE",
"1115 435 OFFCURVE",
"1127 573 CURVE SMOOTH",
"1137 692 OFFCURVE",
"1161 752 OFFCURVE",
"1204 774 CURVE SMOOTH",
"1239 792 OFFCURVE",
"1261 792 OFFCURVE",
"1287 773 CURVE SMOOTH",
"1311 756 OFFCURVE",
"1316 708 OFFCURVE",
"1296 696 CURVE SMOOTH",
"1265 678 OFFCURVE",
"1253 639 OFFCURVE",
"1248 541 CURVE SMOOTH",
"1245 485 OFFCURVE",
"1238 427 OFFCURVE",
"1232 412 CURVE SMOOTH",
"1208 352 OFFCURVE",
"1123 286 OFFCURVE",
"1042 269 CURVE SMOOTH",
"1008 262 LINE",
"1051 249 LINE SMOOTH",
"1102 234 OFFCURVE",
"1168 197 OFFCURVE",
"1169 184 CURVE SMOOTH",
"1171 164 OFFCURVE",
"1128 169 OFFCURVE",
"1061 201 CURVE SMOOTH"
);
}
);
width = 1338;
}
);
unicode = 0075;
},
{
glyphname = x;
lastChange = "2019-02-22 04:33:48 +0000";
layers = (
{
components = (
{
name = oligon;
}
);
layerId = "4D144F8D-878C-4AC1-82CB-BE7AA35E5AC4";
paths = (
{
closed = 1;
nodes = (
"970 219 OFFCURVE",
"893 224 OFFCURVE",
"597 217 CURVE SMOOTH",
"279 209 OFFCURVE",
"247 213 OFFCURVE",
"122 268 CURVE SMOOTH",
"43 303 OFFCURVE",
"30 317 OFFCURVE",
"30 369 CURVE SMOOTH",
"30 412 OFFCURVE",
"31 414 OFFCURVE",
"77 434 CURVE SMOOTH",
"137 460 OFFCURVE",
"189 460 OFFCURVE",
"263 432 CURVE SMOOTH",
"326 408 OFFCURVE",
"349 382 OFFCURVE",
"325 362 CURVE SMOOTH",
"313 352 OFFCURVE",
"302 354 OFFCURVE",
"270 370 CURVE SMOOTH",
"230 390 OFFCURVE",
"230 389 OFFCURVE",
"205 370 CURVE SMOOTH",
"175 347 OFFCURVE",
"174 331 OFFCURVE",
"199 308 CURVE SMOOTH",
"218 291 OFFCURVE",
"228 291 OFFCURVE",
"397 306 CURVE SMOOTH",
"728 335 OFFCURVE",
"933 323 OFFCURVE",
"1031 266 CURVE SMOOTH",
"1086 234 OFFCURVE",
"1084 158 OFFCURVE",
"1030 187 CURVE SMOOTH"
);
}
);
width = 1127;
},
{
components = (
{
name = oligon;
}
);
layerId = "58A037AB-7B5C-4700-A231-207A2D0F9E5C";
paths = (
{
closed = 1;
nodes = (
"970 219 OFFCURVE",
"893 224 OFFCURVE",
"597 217 CURVE SMOOTH",
"279 209 OFFCURVE",
"247 213 OFFCURVE",
"122 268 CURVE SMOOTH",
"43 303 OFFCURVE",
"30 317 OFFCURVE",
"30 369 CURVE SMOOTH",
"30 412 OFFCURVE",
"31 414 OFFCURVE",
"77 434 CURVE SMOOTH",
"137 460 OFFCURVE",
"189 460 OFFCURVE",
"263 432 CURVE SMOOTH",
"326 408 OFFCURVE",
"349 382 OFFCURVE",
"325 362 CURVE SMOOTH",
"313 352 OFFCURVE",
"302 354 OFFCURVE",
"270 370 CURVE SMOOTH",
"230 390 OFFCURVE",
"230 389 OFFCURVE",
"205 370 CURVE SMOOTH",
"175 347 OFFCURVE",
"174 331 OFFCURVE",
"199 308 CURVE SMOOTH",
"218 291 OFFCURVE",
"228 291 OFFCURVE",
"397 306 CURVE SMOOTH",
"728 335 OFFCURVE",
"933 323 OFFCURVE",
"1031 266 CURVE SMOOTH",
"1086 234 OFFCURVE",
"1084 158 OFFCURVE",
"1030 187 CURVE SMOOTH"
);
}
);
width = 1127;
}
);
unicode = 0078;
},
{
glyphname = zero;
lastChange = "2019-02-22 04:33:48 +0000";
layers = (
{
layerId = "4D144F8D-878C-4AC1-82CB-BE7AA35E5AC4";
paths = (
{
closed = 1;
nodes = (
"536 184 OFFCURVE",
"510 186 OFFCURVE",
"489 195 CURVE SMOOTH",
"466 205 OFFCURVE",
"448 230 OFFCURVE",
"434 269 CURVE SMOOTH",
"427 289 OFFCURVE",
"421 302 OFFCURVE",
"411 312 CURVE SMOOTH",
"401 322 OFFCURVE",
"398 330 OFFCURVE",
"401 338 CURVE SMOOTH",
"404 347 OFFCURVE",
"411 351 OFFCURVE",
"425 351 CURVE SMOOTH",
"456 351 OFFCURVE",
"500 349 OFFCURVE",
"506 347 CURVE SMOOTH",
"512 345 OFFCURVE",
"529 335 OFFCURVE",
"536 322 CURVE SMOOTH",
"537 320 OFFCURVE",
"542 312 OFFCURVE",
"548 299 CURVE SMOOTH",
"551 293 OFFCURVE",
"557 279 OFFCURVE",
"564 266 CURVE SMOOTH",
"578 241 OFFCURVE",
"583 235 OFFCURVE",
"600 233 CURVE SMOOTH",
"608 232 OFFCURVE",
"621 227 OFFCURVE",
"621 216 CURVE SMOOTH",
"621 208 OFFCURVE",
"617 202 OFFCURVE",
"598 193 CURVE SMOOTH",
"585 187 OFFCURVE",
"578 184 OFFCURVE",
"558 184 CURVE SMOOTH"
);
},
{
closed = 1;
nodes = (
"746 183 OFFCURVE",
"720 186 OFFCURVE",
"699 195 CURVE SMOOTH",
"676 205 OFFCURVE",
"658 230 OFFCURVE",
"644 269 CURVE SMOOTH",
"637 289 OFFCURVE",
"631 302 OFFCURVE",
"621 312 CURVE SMOOTH",
"611 322 OFFCURVE",
"608 330 OFFCURVE",
"611 338 CURVE SMOOTH",
"614 347 OFFCURVE",
"621 351 OFFCURVE",
"635 351 CURVE SMOOTH",
"666 351 OFFCURVE",
"710 349 OFFCURVE",
"716 347 CURVE SMOOTH",
"722 345 OFFCURVE",
"740 335 OFFCURVE",
"746 322 CURVE SMOOTH",
"747 320 OFFCURVE",
"752 312 OFFCURVE",
"758 299 CURVE SMOOTH",
"761 293 OFFCURVE",
"767 279 OFFCURVE",
"774 266 CURVE SMOOTH",
"788 241 OFFCURVE",
"793 235 OFFCURVE",
"810 233 CURVE SMOOTH",
"818 232 OFFCURVE",
"831 227 OFFCURVE",
"831 216 CURVE SMOOTH",
"831 208 OFFCURVE",
"826 202 OFFCURVE",
"808 193 CURVE SMOOTH",
"796 187 OFFCURVE",
"788 185 OFFCURVE",
"768 184 CURVE SMOOTH"
);
},
{
closed = 1;
nodes = (
"1186 176 OFFCURVE",
"1049 202 OFFCURVE",
"1006 209 CURVE SMOOTH",
"969 215 OFFCURVE",
"904 221 OFFCURVE",
"898 225 CURVE SMOOTH",
"892 229 OFFCURVE",
"1022 267 OFFCURVE",
"1050 278 CURVE SMOOTH",
"1153 319 OFFCURVE",
"1196 353 OFFCURVE",
"1257 442 CURVE SMOOTH",
"1278 475 OFFCURVE",
"1291 497 OFFCURVE",
"1304 531 CURVE SMOOTH",
"1332 600 OFFCURVE",
"1348 643 OFFCURVE",
"1391 652 CURVE SMOOTH",
"1411 656 OFFCURVE",
"1416 657 OFFCURVE",
"1442 656 CURVE SMOOTH",
"1465 655 OFFCURVE",
"1500 648 OFFCURVE",
"1500 634 CURVE SMOOTH",
"1500 633 OFFCURVE",
"1493 625 OFFCURVE",
"1488 616 CURVE SMOOTH",
"1477 596 OFFCURVE",
"1452 548 OFFCURVE",
"1438 515 CURVE SMOOTH",
"1384 384 OFFCURVE",
"1312 326 OFFCURVE",
"1170 264 CURVE SMOOTH",
"1107 234 OFFCURVE",
"1073 237 OFFCURVE",
"1106 225 CURVE SMOOTH",
"1141 213 OFFCURVE",
"1206 180 OFFCURVE",
"1212 167 CURVE SMOOTH",
"1213 165 OFFCURVE",
"1212 165 OFFCURVE",
"1202 169 CURVE SMOOTH"
);
},
{
closed = 1;
nodes = (
"708 425 OFFCURVE",
"571 452 OFFCURVE",
"528 459 CURVE SMOOTH",
"491 465 OFFCURVE",
"426 471 OFFCURVE",
"420 475 CURVE SMOOTH",
"414 479 OFFCURVE",
"544 517 OFFCURVE",
"572 528 CURVE SMOOTH",
"675 569 OFFCURVE",
"718 603 OFFCURVE",
"779 692 CURVE SMOOTH",
"801 724 OFFCURVE",
"813 747 OFFCURVE",
"826 781 CURVE SMOOTH",
"853 851 OFFCURVE",
"870 893 OFFCURVE",
"913 902 CURVE SMOOTH",
"933 906 OFFCURVE",
"938 907 OFFCURVE",
"964 906 CURVE SMOOTH",
"987 905 OFFCURVE",
"1022 898 OFFCURVE",
"1022 884 CURVE SMOOTH",
"1022 883 OFFCURVE",
"1015 875 OFFCURVE",
"1010 866 CURVE SMOOTH",
"999 846 OFFCURVE",
"974 798 OFFCURVE",
"960 765 CURVE SMOOTH",
"905 635 OFFCURVE",
"834 576 OFFCURVE",
"692 514 CURVE SMOOTH",
"628 486 OFFCURVE",
"595 487 OFFCURVE",
"628 475 CURVE SMOOTH",
"663 462 OFFCURVE",
"728 430 OFFCURVE",
"734 417 CURVE SMOOTH",
"735 415 OFFCURVE",
"734 415 OFFCURVE",
"724 419 CURVE SMOOTH"
);
},
{
closed = 1;
nodes = (
"1294 -6 OFFCURVE",
"1144 9 OFFCURVE",
"1080 12 CURVE SMOOTH",
"938 23 OFFCURVE",
"326 -22 OFFCURVE",
"137 28 CURVE SMOOTH",
"117 33 OFFCURVE",
"87 52 OFFCURVE",
"51 83 CURVE SMOOTH",
"31 100 OFFCURVE",
"30 103 OFFCURVE",
"30 114 CURVE SMOOTH",
"30 129 OFFCURVE",
"43 125 OFFCURVE",
"82 117 CURVE SMOOTH",
"97 114 OFFCURVE",
"127 107 OFFCURVE",
"148 106 CURVE SMOOTH",
"199 104 OFFCURVE",
"573 101 OFFCURVE",
"654 104 CURVE SMOOTH",
"733 107 OFFCURVE",
"1051 112 OFFCURVE",
"1080 106 CURVE SMOOTH",
"1142 94 OFFCURVE",
"1241 63 OFFCURVE",
"1292 35 CURVE SMOOTH",
"1305 28 OFFCURVE",
"1314 22 OFFCURVE",
"1317 12 CURVE SMOOTH",
"1323 -7 OFFCURVE",
"1321 -6 OFFCURVE",
"1307 -6 CURVE SMOOTH"
);
}
);
width = 1350;
},
{
layerId = "58A037AB-7B5C-4700-A231-207A2D0F9E5C";
paths = (
{
closed = 1;
nodes = (
"536 184 OFFCURVE",
"510 186 OFFCURVE",
"489 195 CURVE SMOOTH",
"466 205 OFFCURVE",
"448 230 OFFCURVE",
"434 269 CURVE SMOOTH",
"427 289 OFFCURVE",
"421 302 OFFCURVE",
"411 312 CURVE SMOOTH",
"401 322 OFFCURVE",
"398 330 OFFCURVE",
"401 338 CURVE SMOOTH",
"404 347 OFFCURVE",
"411 351 OFFCURVE",
"425 351 CURVE SMOOTH",
"456 351 OFFCURVE",
"500 349 OFFCURVE",
"506 347 CURVE SMOOTH",
"512 345 OFFCURVE",
"529 335 OFFCURVE",
"536 322 CURVE SMOOTH",
"537 320 OFFCURVE",
"542 312 OFFCURVE",
"548 299 CURVE SMOOTH",
"551 293 OFFCURVE",
"557 279 OFFCURVE",
"564 266 CURVE SMOOTH",
"578 241 OFFCURVE",
"583 235 OFFCURVE",
"600 233 CURVE SMOOTH",
"608 232 OFFCURVE",
"621 227 OFFCURVE",
"621 216 CURVE SMOOTH",
"621 208 OFFCURVE",
"617 202 OFFCURVE",
"598 193 CURVE SMOOTH",
"585 187 OFFCURVE",
"578 184 OFFCURVE",
"558 184 CURVE SMOOTH"
);
},
{
closed = 1;
nodes = (
"746 183 OFFCURVE",
"720 186 OFFCURVE",
"699 195 CURVE SMOOTH",
"676 205 OFFCURVE",
"658 230 OFFCURVE",
"644 269 CURVE SMOOTH",
"637 289 OFFCURVE",
"631 302 OFFCURVE",
"621 312 CURVE SMOOTH",
"611 322 OFFCURVE",
"608 330 OFFCURVE",
"611 338 CURVE SMOOTH",
"614 347 OFFCURVE",
"621 351 OFFCURVE",
"635 351 CURVE SMOOTH",
"666 351 OFFCURVE",
"710 349 OFFCURVE",
"716 347 CURVE SMOOTH",
"722 345 OFFCURVE",
"740 335 OFFCURVE",
"746 322 CURVE SMOOTH",
"747 320 OFFCURVE",
"752 312 OFFCURVE",
"758 299 CURVE SMOOTH",
"761 293 OFFCURVE",
"767 279 OFFCURVE",
"774 266 CURVE SMOOTH",
"788 241 OFFCURVE",
"793 235 OFFCURVE",
"810 233 CURVE SMOOTH",
"818 232 OFFCURVE",
"831 227 OFFCURVE",
"831 216 CURVE SMOOTH",
"831 208 OFFCURVE",
"826 202 OFFCURVE",
"808 193 CURVE SMOOTH",
"796 187 OFFCURVE",
"788 185 OFFCURVE",
"768 184 CURVE SMOOTH"
);
},
{
closed = 1;
nodes = (
"1186 176 OFFCURVE",
"1049 202 OFFCURVE",
"1006 209 CURVE SMOOTH",
"969 215 OFFCURVE",
"904 221 OFFCURVE",
"898 225 CURVE SMOOTH",
"892 229 OFFCURVE",
"1022 267 OFFCURVE",
"1050 278 CURVE SMOOTH",
"1153 319 OFFCURVE",
"1196 353 OFFCURVE",
"1257 442 CURVE SMOOTH",
"1278 475 OFFCURVE",
"1291 497 OFFCURVE",
"1304 531 CURVE SMOOTH",
"1332 600 OFFCURVE",
"1348 643 OFFCURVE",
"1391 652 CURVE SMOOTH",
"1411 656 OFFCURVE",
"1416 657 OFFCURVE",
"1442 656 CURVE SMOOTH",
"1465 655 OFFCURVE",
"1500 648 OFFCURVE",
"1500 634 CURVE SMOOTH",
"1500 633 OFFCURVE",
"1493 625 OFFCURVE",
"1488 616 CURVE SMOOTH",
"1477 596 OFFCURVE",
"1452 548 OFFCURVE",
"1438 515 CURVE SMOOTH",
"1384 384 OFFCURVE",
"1312 326 OFFCURVE",
"1170 264 CURVE SMOOTH",
"1107 234 OFFCURVE",
"1073 237 OFFCURVE",
"1106 225 CURVE SMOOTH",
"1141 213 OFFCURVE",
"1206 180 OFFCURVE",
"1212 167 CURVE SMOOTH",
"1213 165 OFFCURVE",
"1212 165 OFFCURVE",
"1202 169 CURVE SMOOTH"
);
},
{
closed = 1;
nodes = (
"708 425 OFFCURVE",
"571 452 OFFCURVE",
"528 459 CURVE SMOOTH",
"491 465 OFFCURVE",
"426 471 OFFCURVE",
"420 475 CURVE SMOOTH",
"414 479 OFFCURVE",
"544 517 OFFCURVE",
"572 528 CURVE SMOOTH",
"675 569 OFFCURVE",
"718 603 OFFCURVE",
"779 692 CURVE SMOOTH",
"801 724 OFFCURVE",
"813 747 OFFCURVE",
"826 781 CURVE SMOOTH",
"853 851 OFFCURVE",
"870 893 OFFCURVE",
"913 902 CURVE SMOOTH",
"933 906 OFFCURVE",
"938 907 OFFCURVE",
"964 906 CURVE SMOOTH",
"987 905 OFFCURVE",
"1022 898 OFFCURVE",
"1022 884 CURVE SMOOTH",
"1022 883 OFFCURVE",
"1015 875 OFFCURVE",
"1010 866 CURVE SMOOTH",
"999 846 OFFCURVE",
"974 798 OFFCURVE",
"960 765 CURVE SMOOTH",
"905 635 OFFCURVE",
"834 576 OFFCURVE",
"692 514 CURVE SMOOTH",
"628 486 OFFCURVE",
"595 487 OFFCURVE",
"628 475 CURVE SMOOTH",
"663 462 OFFCURVE",
"728 430 OFFCURVE",
"734 417 CURVE SMOOTH",
"735 415 OFFCURVE",
"734 415 OFFCURVE",
"724 419 CURVE SMOOTH"
);
},
{
closed = 1;
nodes = (
"1294 -6 OFFCURVE",
"1144 9 OFFCURVE",
"1080 12 CURVE SMOOTH",
"938 23 OFFCURVE",
"326 -22 OFFCURVE",
"137 28 CURVE SMOOTH",
"117 33 OFFCURVE",
"87 52 OFFCURVE",
"51 83 CURVE SMOOTH",
"31 100 OFFCURVE",
"30 103 OFFCURVE",
"30 114 CURVE SMOOTH",
"30 129 OFFCURVE",
"43 125 OFFCURVE",
"82 117 CURVE SMOOTH",
"97 114 OFFCURVE",
"127 107 OFFCURVE",
"148 106 CURVE SMOOTH",
"199 104 OFFCURVE",
"573 101 OFFCURVE",
"654 104 CURVE SMOOTH",
"733 107 OFFCURVE",
"1051 112 OFFCURVE",
"1080 106 CURVE SMOOTH",
"1142 94 OFFCURVE",
"1241 63 OFFCURVE",
"1292 35 CURVE SMOOTH",
"1305 28 OFFCURVE",
"1314 22 OFFCURVE",
"1317 12 CURVE SMOOTH",
"1323 -7 OFFCURVE",
"1321 -6 OFFCURVE",
"1307 -6 CURVE SMOOTH"
);
}
);
width = 1350;
}
);
unicode = 0030;
},
{
glyphname = one;
lastChange = "2019-02-22 04:33:48 +0000";
layers = (
{
layerId = "4D144F8D-878C-4AC1-82CB-BE7AA35E5AC4";
paths = (
{
closed = 1;
nodes = (
"1116 18 OFFCURVE",
"978 22 OFFCURVE",
"849 16 CURVE SMOOTH",
"732 11 OFFCURVE",
"672 12 OFFCURVE",
"510 6 CURVE SMOOTH",
"382 1 OFFCURVE",
"341 5 OFFCURVE",
"307 6 CURVE SMOOTH",
"177 10 OFFCURVE",
"87 23 OFFCURVE",
"51 31 CURVE SMOOTH",
"28 36 OFFCURVE",
"-4 54 OFFCURVE",
"-37 80 CURVE SMOOTH",
"-59 97 OFFCURVE",
"-69 120 OFFCURVE",
"-53 120 CURVE SMOOTH",
"-51 120 OFFCURVE",
"-34 117 OFFCURVE",
"-18 114 CURVE SMOOTH",
"50 101 OFFCURVE",
"65 101 OFFCURVE",
"219 99 CURVE SMOOTH",
"300 98 OFFCURVE",
"438 99 OFFCURVE",
"538 101 CURVE SMOOTH",
"632 103 OFFCURVE",
"782 104 OFFCURVE",
"869 104 CURVE SMOOTH",
"1012 104 OFFCURVE",
"1031 104 OFFCURVE",
"1054 100 CURVE SMOOTH",
"1120 89 OFFCURVE",
"1215 60 OFFCURVE",
"1266 34 CURVE SMOOTH",
"1284 25 OFFCURVE",
"1295 10 OFFCURVE",
"1291 1 CURVE SMOOTH",
"1288 -5 OFFCURVE",
"1278 -4 OFFCURVE",
"1241 1 CURVE SMOOTH"
);
},
{
closed = 1;
nodes = (
"708 425 OFFCURVE",
"571 452 OFFCURVE",
"528 459 CURVE SMOOTH",
"491 465 OFFCURVE",
"426 471 OFFCURVE",
"420 475 CURVE SMOOTH",
"414 479 OFFCURVE",
"544 517 OFFCURVE",
"572 528 CURVE SMOOTH",
"675 569 OFFCURVE",
"718 603 OFFCURVE",
"779 692 CURVE SMOOTH",
"801 724 OFFCURVE",
"813 747 OFFCURVE",
"826 781 CURVE SMOOTH",
"853 851 OFFCURVE",
"870 893 OFFCURVE",
"913 902 CURVE SMOOTH",
"933 906 OFFCURVE",
"938 907 OFFCURVE",
"964 906 CURVE SMOOTH",
"987 905 OFFCURVE",
"1022 898 OFFCURVE",
"1022 884 CURVE SMOOTH",
"1022 883 OFFCURVE",
"1015 875 OFFCURVE",
"1010 866 CURVE SMOOTH",
"999 846 OFFCURVE",
"974 798 OFFCURVE",
"960 765 CURVE SMOOTH",
"905 635 OFFCURVE",
"834 576 OFFCURVE",
"692 514 CURVE SMOOTH",
"628 486 OFFCURVE",
"595 487 OFFCURVE",
"628 475 CURVE SMOOTH",
"663 462 OFFCURVE",
"728 430 OFFCURVE",
"734 417 CURVE SMOOTH",
"735 415 OFFCURVE",
"734 415 OFFCURVE",
"724 419 CURVE SMOOTH"
);
},
{
closed = 1;
nodes = (
"148 195 OFFCURVE",
"11 222 OFFCURVE",
"-32 229 CURVE SMOOTH",
"-69 235 OFFCURVE",
"-134 241 OFFCURVE",
"-140 245 CURVE SMOOTH",
"-146 249 OFFCURVE",
"-16 287 OFFCURVE",
"12 298 CURVE SMOOTH",
"115 339 OFFCURVE",
"158 373 OFFCURVE",
"219 462 CURVE SMOOTH",
"241 494 OFFCURVE",
"253 517 OFFCURVE",
"266 551 CURVE SMOOTH",
"293 621 OFFCURVE",
"310 663 OFFCURVE",
"353 672 CURVE SMOOTH",
"373 676 OFFCURVE",
"378 677 OFFCURVE",
"404 676 CURVE SMOOTH",
"427 675 OFFCURVE",
"462 668 OFFCURVE",
"462 654 CURVE SMOOTH",
"462 653 OFFCURVE",
"455 645 OFFCURVE",
"450 636 CURVE SMOOTH",
"439 616 OFFCURVE",
"414 568 OFFCURVE",
"400 535 CURVE SMOOTH",
"345 405 OFFCURVE",
"274 346 OFFCURVE",
"132 284 CURVE SMOOTH",
"68 256 OFFCURVE",
"35 257 OFFCURVE",
"68 245 CURVE SMOOTH",
"103 232 OFFCURVE",
"168 200 OFFCURVE",
"174 187 CURVE SMOOTH",
"175 185 OFFCURVE",
"174 185 OFFCURVE",
"164 189 CURVE SMOOTH"
);
},
{
closed = 1;
nodes = (
"653 194 OFFCURVE",
"627 196 OFFCURVE",
"606 205 CURVE SMOOTH",
"583 215 OFFCURVE",
"565 240 OFFCURVE",
"551 279 CURVE SMOOTH",
"544 299 OFFCURVE",
"538 312 OFFCURVE",
"528 322 CURVE SMOOTH",
"518 332 OFFCURVE",
"515 340 OFFCURVE",
"518 348 CURVE SMOOTH",
"521 357 OFFCURVE",
"528 361 OFFCURVE",
"542 361 CURVE SMOOTH",
"573 361 OFFCURVE",
"617 359 OFFCURVE",
"623 357 CURVE SMOOTH",
"629 355 OFFCURVE",
"646 345 OFFCURVE",
"653 332 CURVE SMOOTH",
"654 330 OFFCURVE",
"659 322 OFFCURVE",
"665 309 CURVE SMOOTH",
"668 303 OFFCURVE",
"674 289 OFFCURVE",
"681 276 CURVE SMOOTH",
"695 251 OFFCURVE",
"700 245 OFFCURVE",
"717 243 CURVE SMOOTH",
"725 242 OFFCURVE",
"738 237 OFFCURVE",
"738 226 CURVE SMOOTH",
"738 218 OFFCURVE",
"734 212 OFFCURVE",
"715 203 CURVE SMOOTH",
"702 197 OFFCURVE",
"695 194 OFFCURVE",
"675 194 CURVE SMOOTH"
);
}
);
width = 1322;
},
{
layerId = "58A037AB-7B5C-4700-A231-207A2D0F9E5C";
paths = (
{
closed = 1;
nodes = (
"1116 18 OFFCURVE",
"978 22 OFFCURVE",
"849 16 CURVE SMOOTH",
"732 11 OFFCURVE",
"672 12 OFFCURVE",
"510 6 CURVE SMOOTH",
"382 1 OFFCURVE",
"341 5 OFFCURVE",
"307 6 CURVE SMOOTH",
"177 10 OFFCURVE",
"87 23 OFFCURVE",
"51 31 CURVE SMOOTH",
"28 36 OFFCURVE",
"-4 54 OFFCURVE",
"-37 80 CURVE SMOOTH",
"-59 97 OFFCURVE",
"-69 120 OFFCURVE",
"-53 120 CURVE SMOOTH",
"-51 120 OFFCURVE",
"-34 117 OFFCURVE",
"-18 114 CURVE SMOOTH",
"50 101 OFFCURVE",
"65 101 OFFCURVE",
"219 99 CURVE SMOOTH",
"300 98 OFFCURVE",
"438 99 OFFCURVE",
"538 101 CURVE SMOOTH",
"632 103 OFFCURVE",
"782 104 OFFCURVE",
"869 104 CURVE SMOOTH",
"1012 104 OFFCURVE",
"1031 104 OFFCURVE",
"1054 100 CURVE SMOOTH",
"1120 89 OFFCURVE",
"1215 60 OFFCURVE",
"1266 34 CURVE SMOOTH",
"1284 25 OFFCURVE",
"1295 10 OFFCURVE",
"1291 1 CURVE SMOOTH",
"1288 -5 OFFCURVE",
"1278 -4 OFFCURVE",
"1241 1 CURVE SMOOTH"
);
},
{
closed = 1;
nodes = (
"708 425 OFFCURVE",
"571 452 OFFCURVE",
"528 459 CURVE SMOOTH",
"491 465 OFFCURVE",
"426 471 OFFCURVE",
"420 475 CURVE SMOOTH",
"414 479 OFFCURVE",
"544 517 OFFCURVE",
"572 528 CURVE SMOOTH",
"675 569 OFFCURVE",
"718 603 OFFCURVE",
"779 692 CURVE SMOOTH",
"801 724 OFFCURVE",
"813 747 OFFCURVE",
"826 781 CURVE SMOOTH",
"853 851 OFFCURVE",
"870 893 OFFCURVE",
"913 902 CURVE SMOOTH",
"933 906 OFFCURVE",
"938 907 OFFCURVE",
"964 906 CURVE SMOOTH",
"987 905 OFFCURVE",
"1022 898 OFFCURVE",
"1022 884 CURVE SMOOTH",
"1022 883 OFFCURVE",
"1015 875 OFFCURVE",
"1010 866 CURVE SMOOTH",
"999 846 OFFCURVE",
"974 798 OFFCURVE",
"960 765 CURVE SMOOTH",
"905 635 OFFCURVE",
"834 576 OFFCURVE",
"692 514 CURVE SMOOTH",
"628 486 OFFCURVE",
"595 487 OFFCURVE",
"628 475 CURVE SMOOTH",
"663 462 OFFCURVE",
"728 430 OFFCURVE",
"734 417 CURVE SMOOTH",
"735 415 OFFCURVE",
"734 415 OFFCURVE",
"724 419 CURVE SMOOTH"
);
},
{
closed = 1;
nodes = (
"148 195 OFFCURVE",
"11 222 OFFCURVE",
"-32 229 CURVE SMOOTH",
"-69 235 OFFCURVE",
"-134 241 OFFCURVE",
"-140 245 CURVE SMOOTH",
"-146 249 OFFCURVE",
"-16 287 OFFCURVE",
"12 298 CURVE SMOOTH",
"115 339 OFFCURVE",
"158 373 OFFCURVE",
"219 462 CURVE SMOOTH",
"241 494 OFFCURVE",
"253 517 OFFCURVE",
"266 551 CURVE SMOOTH",
"293 621 OFFCURVE",
"310 663 OFFCURVE",
"353 672 CURVE SMOOTH",
"373 676 OFFCURVE",
"378 677 OFFCURVE",
"404 676 CURVE SMOOTH",
"427 675 OFFCURVE",
"462 668 OFFCURVE",
"462 654 CURVE SMOOTH",
"462 653 OFFCURVE",
"455 645 OFFCURVE",
"450 636 CURVE SMOOTH",
"439 616 OFFCURVE",
"414 568 OFFCURVE",
"400 535 CURVE SMOOTH",
"345 405 OFFCURVE",
"274 346 OFFCURVE",
"132 284 CURVE SMOOTH",
"68 256 OFFCURVE",
"35 257 OFFCURVE",
"68 245 CURVE SMOOTH",
"103 232 OFFCURVE",
"168 200 OFFCURVE",
"174 187 CURVE SMOOTH",
"175 185 OFFCURVE",
"174 185 OFFCURVE",
"164 189 CURVE SMOOTH"
);
},
{
closed = 1;
nodes = (
"653 194 OFFCURVE",
"627 196 OFFCURVE",
"606 205 CURVE SMOOTH",
"583 215 OFFCURVE",
"565 240 OFFCURVE",
"551 279 CURVE SMOOTH",
"544 299 OFFCURVE",
"538 312 OFFCURVE",
"528 322 CURVE SMOOTH",
"518 332 OFFCURVE",
"515 340 OFFCURVE",
"518 348 CURVE SMOOTH",
"521 357 OFFCURVE",
"528 361 OFFCURVE",
"542 361 CURVE SMOOTH",
"573 361 OFFCURVE",
"617 359 OFFCURVE",
"623 357 CURVE SMOOTH",
"629 355 OFFCURVE",
"646 345 OFFCURVE",
"653 332 CURVE SMOOTH",
"654 330 OFFCURVE",
"659 322 OFFCURVE",
"665 309 CURVE SMOOTH",
"668 303 OFFCURVE",
"674 289 OFFCURVE",
"681 276 CURVE SMOOTH",
"695 251 OFFCURVE",
"700 245 OFFCURVE",
"717 243 CURVE SMOOTH",
"725 242 OFFCURVE",
"738 237 OFFCURVE",
"738 226 CURVE SMOOTH",
"738 218 OFFCURVE",
"734 212 OFFCURVE",
"715 203 CURVE SMOOTH",
"702 197 OFFCURVE",
"695 194 OFFCURVE",
"675 194 CURVE SMOOTH"
);
}
);
width = 1322;
}
);
unicode = 0031;
},
{
glyphname = two;
lastChange = "2019-02-22 04:33:48 +0000";
layers = (
{
layerId = "4D144F8D-878C-4AC1-82CB-BE7AA35E5AC4";
paths = (
{
closed = 1;
nodes = (
"1207 18 OFFCURVE",
"1069 22 OFFCURVE",
"940 16 CURVE SMOOTH",
"823 11 OFFCURVE",
"763 12 OFFCURVE",
"601 6 CURVE SMOOTH",
"473 1 OFFCURVE",
"432 5 OFFCURVE",
"398 6 CURVE SMOOTH",
"268 10 OFFCURVE",
"178 23 OFFCURVE",
"142 31 CURVE SMOOTH",
"119 36 OFFCURVE",
"87 54 OFFCURVE",
"54 80 CURVE SMOOTH",
"32 97 OFFCURVE",
"22 120 OFFCURVE",
"38 120 CURVE SMOOTH",
"40 120 OFFCURVE",
"57 117 OFFCURVE",
"73 114 CURVE SMOOTH",
"141 101 OFFCURVE",
"156 101 OFFCURVE",
"310 99 CURVE SMOOTH",
"391 98 OFFCURVE",
"529 99 OFFCURVE",
"629 101 CURVE SMOOTH",
"723 103 OFFCURVE",
"873 104 OFFCURVE",
"960 104 CURVE SMOOTH",
"1103 104 OFFCURVE",
"1122 104 OFFCURVE",
"1145 100 CURVE SMOOTH",
"1211 89 OFFCURVE",
"1306 60 OFFCURVE",
"1357 34 CURVE SMOOTH",
"1375 25 OFFCURVE",
"1386 10 OFFCURVE",
"1382 1 CURVE SMOOTH",
"1379 -5 OFFCURVE",
"1369 -4 OFFCURVE",
"1332 1 CURVE SMOOTH"
);
},
{
closed = 1;
nodes = (
"1246 175 OFFCURVE",
"1109 202 OFFCURVE",
"1066 209 CURVE SMOOTH",
"1029 215 OFFCURVE",
"964 221 OFFCURVE",
"958 225 CURVE SMOOTH",
"952 229 OFFCURVE",
"1082 267 OFFCURVE",
"1110 278 CURVE SMOOTH",
"1213 319 OFFCURVE",
"1256 353 OFFCURVE",
"1317 442 CURVE SMOOTH",
"1339 474 OFFCURVE",
"1351 497 OFFCURVE",
"1364 531 CURVE SMOOTH",
"1391 601 OFFCURVE",
"1408 643 OFFCURVE",
"1451 652 CURVE SMOOTH",
"1471 656 OFFCURVE",
"1476 657 OFFCURVE",
"1502 656 CURVE SMOOTH",
"1525 655 OFFCURVE",
"1560 648 OFFCURVE",
"1560 634 CURVE SMOOTH",
"1560 633 OFFCURVE",
"1553 625 OFFCURVE",
"1548 616 CURVE SMOOTH",
"1537 596 OFFCURVE",
"1512 548 OFFCURVE",
"1498 515 CURVE SMOOTH",
"1443 385 OFFCURVE",
"1372 326 OFFCURVE",
"1230 264 CURVE SMOOTH",
"1166 236 OFFCURVE",
"1133 237 OFFCURVE",
"1166 225 CURVE SMOOTH",
"1201 212 OFFCURVE",
"1266 180 OFFCURVE",
"1272 167 CURVE SMOOTH",
"1273 165 OFFCURVE",
"1272 165 OFFCURVE",
"1262 169 CURVE SMOOTH"
);
},
{
closed = 1;
nodes = (
"758 195 OFFCURVE",
"621 222 OFFCURVE",
"578 229 CURVE SMOOTH",
"541 235 OFFCURVE",
"476 241 OFFCURVE",
"470 245 CURVE SMOOTH",
"464 249 OFFCURVE",
"594 287 OFFCURVE",
"622 298 CURVE SMOOTH",
"725 339 OFFCURVE",
"768 373 OFFCURVE",
"829 462 CURVE SMOOTH",
"851 494 OFFCURVE",
"863 517 OFFCURVE",
"876 551 CURVE SMOOTH",
"903 621 OFFCURVE",
"920 663 OFFCURVE",
"963 672 CURVE SMOOTH",
"983 676 OFFCURVE",
"988 677 OFFCURVE",
"1014 676 CURVE SMOOTH",
"1037 675 OFFCURVE",
"1072 668 OFFCURVE",
"1072 654 CURVE SMOOTH",
"1072 653 OFFCURVE",
"1065 645 OFFCURVE",
"1060 636 CURVE SMOOTH",
"1049 616 OFFCURVE",
"1024 568 OFFCURVE",
"1010 535 CURVE SMOOTH",
"955 405 OFFCURVE",
"884 346 OFFCURVE",
"742 284 CURVE SMOOTH",
"678 256 OFFCURVE",
"645 257 OFFCURVE",
"678 245 CURVE SMOOTH",
"713 232 OFFCURVE",
"778 200 OFFCURVE",
"784 187 CURVE SMOOTH",
"785 185 OFFCURVE",
"784 185 OFFCURVE",
"774 189 CURVE SMOOTH"
);
},
{
closed = 1;
nodes = (
"248 195 OFFCURVE",
"111 222 OFFCURVE",
"68 229 CURVE SMOOTH",
"31 235 OFFCURVE",
"-34 241 OFFCURVE",
"-40 245 CURVE SMOOTH",
"-46 249 OFFCURVE",
"84 287 OFFCURVE",
"112 298 CURVE SMOOTH",
"215 339 OFFCURVE",
"258 373 OFFCURVE",
"319 462 CURVE SMOOTH",
"341 494 OFFCURVE",
"353 517 OFFCURVE",
"366 551 CURVE SMOOTH",
"393 621 OFFCURVE",
"410 663 OFFCURVE",
"453 672 CURVE SMOOTH",
"473 676 OFFCURVE",
"478 677 OFFCURVE",
"504 676 CURVE SMOOTH",
"527 675 OFFCURVE",
"562 668 OFFCURVE",
"562 654 CURVE SMOOTH",
"562 653 OFFCURVE",
"555 645 OFFCURVE",
"550 636 CURVE SMOOTH",
"539 616 OFFCURVE",
"514 568 OFFCURVE",
"500 535 CURVE SMOOTH",
"445 405 OFFCURVE",
"374 346 OFFCURVE",
"232 284 CURVE SMOOTH",
"168 256 OFFCURVE",
"135 257 OFFCURVE",
"168 245 CURVE SMOOTH",
"203 232 OFFCURVE",
"268 200 OFFCURVE",
"274 187 CURVE SMOOTH",
"275 185 OFFCURVE",
"274 185 OFFCURVE",
"264 189 CURVE SMOOTH"
);
}
);
width = 1473;
},
{
layerId = "58A037AB-7B5C-4700-A231-207A2D0F9E5C";
paths = (
{
closed = 1;
nodes = (
"1207 18 OFFCURVE",
"1069 22 OFFCURVE",
"940 16 CURVE SMOOTH",
"823 11 OFFCURVE",
"763 12 OFFCURVE",
"601 6 CURVE SMOOTH",
"473 1 OFFCURVE",
"432 5 OFFCURVE",
"398 6 CURVE SMOOTH",
"268 10 OFFCURVE",
"178 23 OFFCURVE",
"142 31 CURVE SMOOTH",
"119 36 OFFCURVE",
"87 54 OFFCURVE",
"54 80 CURVE SMOOTH",
"32 97 OFFCURVE",
"22 120 OFFCURVE",
"38 120 CURVE SMOOTH",
"40 120 OFFCURVE",
"57 117 OFFCURVE",
"73 114 CURVE SMOOTH",
"141 101 OFFCURVE",
"156 101 OFFCURVE",
"310 99 CURVE SMOOTH",
"391 98 OFFCURVE",
"529 99 OFFCURVE",
"629 101 CURVE SMOOTH",
"723 103 OFFCURVE",
"873 104 OFFCURVE",
"960 104 CURVE SMOOTH",
"1103 104 OFFCURVE",
"1122 104 OFFCURVE",
"1145 100 CURVE SMOOTH",
"1211 89 OFFCURVE",
"1306 60 OFFCURVE",
"1357 34 CURVE SMOOTH",
"1375 25 OFFCURVE",
"1386 10 OFFCURVE",
"1382 1 CURVE SMOOTH",
"1379 -5 OFFCURVE",
"1369 -4 OFFCURVE",
"1332 1 CURVE SMOOTH"
);
},
{
closed = 1;
nodes = (
"1246 175 OFFCURVE",
"1109 202 OFFCURVE",
"1066 209 CURVE SMOOTH",
"1029 215 OFFCURVE",
"964 221 OFFCURVE",
"958 225 CURVE SMOOTH",
"952 229 OFFCURVE",
"1082 267 OFFCURVE",
"1110 278 CURVE SMOOTH",
"1213 319 OFFCURVE",
"1256 353 OFFCURVE",
"1317 442 CURVE SMOOTH",
"1339 474 OFFCURVE",
"1351 497 OFFCURVE",
"1364 531 CURVE SMOOTH",
"1391 601 OFFCURVE",
"1408 643 OFFCURVE",
"1451 652 CURVE SMOOTH",
"1471 656 OFFCURVE",
"1476 657 OFFCURVE",
"1502 656 CURVE SMOOTH",
"1525 655 OFFCURVE",
"1560 648 OFFCURVE",
"1560 634 CURVE SMOOTH",
"1560 633 OFFCURVE",
"1553 625 OFFCURVE",
"1548 616 CURVE SMOOTH",
"1537 596 OFFCURVE",
"1512 548 OFFCURVE",
"1498 515 CURVE SMOOTH",
"1443 385 OFFCURVE",
"1372 326 OFFCURVE",
"1230 264 CURVE SMOOTH",
"1166 236 OFFCURVE",
"1133 237 OFFCURVE",
"1166 225 CURVE SMOOTH",
"1201 212 OFFCURVE",
"1266 180 OFFCURVE",
"1272 167 CURVE SMOOTH",
"1273 165 OFFCURVE",
"1272 165 OFFCURVE",
"1262 169 CURVE SMOOTH"
);
},
{
closed = 1;
nodes = (
"758 195 OFFCURVE",
"621 222 OFFCURVE",
"578 229 CURVE SMOOTH",
"541 235 OFFCURVE",
"476 241 OFFCURVE",
"470 245 CURVE SMOOTH",
"464 249 OFFCURVE",
"594 287 OFFCURVE",
"622 298 CURVE SMOOTH",
"725 339 OFFCURVE",
"768 373 OFFCURVE",
"829 462 CURVE SMOOTH",
"851 494 OFFCURVE",
"863 517 OFFCURVE",
"876 551 CURVE SMOOTH",
"903 621 OFFCURVE",
"920 663 OFFCURVE",
"963 672 CURVE SMOOTH",
"983 676 OFFCURVE",
"988 677 OFFCURVE",
"1014 676 CURVE SMOOTH",
"1037 675 OFFCURVE",
"1072 668 OFFCURVE",
"1072 654 CURVE SMOOTH",
"1072 653 OFFCURVE",
"1065 645 OFFCURVE",
"1060 636 CURVE SMOOTH",
"1049 616 OFFCURVE",
"1024 568 OFFCURVE",
"1010 535 CURVE SMOOTH",
"955 405 OFFCURVE",
"884 346 OFFCURVE",
"742 284 CURVE SMOOTH",
"678 256 OFFCURVE",
"645 257 OFFCURVE",
"678 245 CURVE SMOOTH",
"713 232 OFFCURVE",
"778 200 OFFCURVE",
"784 187 CURVE SMOOTH",
"785 185 OFFCURVE",
"784 185 OFFCURVE",
"774 189 CURVE SMOOTH"
);
},
{
closed = 1;
nodes = (
"248 195 OFFCURVE",
"111 222 OFFCURVE",
"68 229 CURVE SMOOTH",
"31 235 OFFCURVE",
"-34 241 OFFCURVE",
"-40 245 CURVE SMOOTH",
"-46 249 OFFCURVE",
"84 287 OFFCURVE",
"112 298 CURVE SMOOTH",
"215 339 OFFCURVE",
"258 373 OFFCURVE",
"319 462 CURVE SMOOTH",
"341 494 OFFCURVE",
"353 517 OFFCURVE",
"366 551 CURVE SMOOTH",
"393 621 OFFCURVE",
"410 663 OFFCURVE",
"453 672 CURVE SMOOTH",
"473 676 OFFCURVE",
"478 677 OFFCURVE",
"504 676 CURVE SMOOTH",
"527 675 OFFCURVE",
"562 668 OFFCURVE",
"562 654 CURVE SMOOTH",
"562 653 OFFCURVE",
"555 645 OFFCURVE",
"550 636 CURVE SMOOTH",
"539 616 OFFCURVE",
"514 568 OFFCURVE",
"500 535 CURVE SMOOTH",
"445 405 OFFCURVE",
"374 346 OFFCURVE",
"232 284 CURVE SMOOTH",
"168 256 OFFCURVE",
"135 257 OFFCURVE",
"168 245 CURVE SMOOTH",
"203 232 OFFCURVE",
"268 200 OFFCURVE",
"274 187 CURVE SMOOTH",
"275 185 OFFCURVE",
"274 185 OFFCURVE",
"264 189 CURVE SMOOTH"
);
}
);
width = 1473;
}
);
unicode = 0032;
},
{
glyphname = three;
lastChange = "2019-02-22 04:33:48 +0000";
layers = (
{
layerId = "4D144F8D-878C-4AC1-82CB-BE7AA35E5AC4";
paths = (
{
closed = 1;
nodes = (
"536 184 OFFCURVE",
"510 186 OFFCURVE",
"489 195 CURVE SMOOTH",
"466 205 OFFCURVE",
"448 230 OFFCURVE",
"434 269 CURVE SMOOTH",
"427 289 OFFCURVE",
"421 302 OFFCURVE",
"411 312 CURVE SMOOTH",
"401 322 OFFCURVE",
"398 330 OFFCURVE",
"401 338 CURVE SMOOTH",
"404 347 OFFCURVE",
"411 351 OFFCURVE",
"425 351 CURVE SMOOTH",
"456 351 OFFCURVE",
"500 349 OFFCURVE",
"506 347 CURVE SMOOTH",
"512 345 OFFCURVE",
"529 335 OFFCURVE",
"536 322 CURVE SMOOTH",
"537 320 OFFCURVE",
"542 312 OFFCURVE",
"548 299 CURVE SMOOTH",
"551 293 OFFCURVE",
"557 279 OFFCURVE",
"564 266 CURVE SMOOTH",
"578 241 OFFCURVE",
"583 235 OFFCURVE",
"600 233 CURVE SMOOTH",
"608 232 OFFCURVE",
"621 227 OFFCURVE",
"621 216 CURVE SMOOTH",
"621 208 OFFCURVE",
"617 202 OFFCURVE",
"598 193 CURVE SMOOTH",
"585 187 OFFCURVE",
"578 184 OFFCURVE",
"558 184 CURVE SMOOTH"
);
},
{
closed = 1;
nodes = (
"746 183 OFFCURVE",
"720 186 OFFCURVE",
"699 195 CURVE SMOOTH",
"676 205 OFFCURVE",
"658 230 OFFCURVE",
"644 269 CURVE SMOOTH",
"637 289 OFFCURVE",
"631 302 OFFCURVE",
"621 312 CURVE SMOOTH",
"611 322 OFFCURVE",
"608 330 OFFCURVE",
"611 338 CURVE SMOOTH",
"614 347 OFFCURVE",
"621 351 OFFCURVE",
"635 351 CURVE SMOOTH",
"666 351 OFFCURVE",
"710 349 OFFCURVE",
"716 347 CURVE SMOOTH",
"722 345 OFFCURVE",
"740 335 OFFCURVE",
"746 322 CURVE SMOOTH",
"747 320 OFFCURVE",
"752 312 OFFCURVE",
"758 299 CURVE SMOOTH",
"761 293 OFFCURVE",
"767 279 OFFCURVE",
"774 266 CURVE SMOOTH",
"788 241 OFFCURVE",
"793 235 OFFCURVE",
"810 233 CURVE SMOOTH",
"818 232 OFFCURVE",
"831 227 OFFCURVE",
"831 216 CURVE SMOOTH",
"831 208 OFFCURVE",
"826 202 OFFCURVE",
"808 193 CURVE SMOOTH",
"796 187 OFFCURVE",
"788 185 OFFCURVE",
"768 184 CURVE SMOOTH"
);
},
{
closed = 1;
nodes = (
"1186 176 OFFCURVE",
"1049 202 OFFCURVE",
"1006 209 CURVE SMOOTH",
"969 215 OFFCURVE",
"904 221 OFFCURVE",
"898 225 CURVE SMOOTH",
"892 229 OFFCURVE",
"1022 267 OFFCURVE",
"1050 278 CURVE SMOOTH",
"1153 319 OFFCURVE",
"1196 353 OFFCURVE",
"1257 442 CURVE SMOOTH",
"1278 475 OFFCURVE",
"1291 497 OFFCURVE",
"1304 531 CURVE SMOOTH",
"1332 600 OFFCURVE",
"1348 643 OFFCURVE",
"1391 652 CURVE SMOOTH",
"1411 656 OFFCURVE",
"1416 657 OFFCURVE",
"1442 656 CURVE SMOOTH",
"1465 655 OFFCURVE",
"1500 648 OFFCURVE",
"1500 634 CURVE SMOOTH",
"1500 633 OFFCURVE",
"1493 625 OFFCURVE",
"1488 616 CURVE SMOOTH",
"1477 596 OFFCURVE",
"1452 548 OFFCURVE",
"1438 515 CURVE SMOOTH",
"1384 384 OFFCURVE",
"1312 326 OFFCURVE",
"1170 264 CURVE SMOOTH",
"1107 234 OFFCURVE",
"1073 237 OFFCURVE",
"1106 225 CURVE SMOOTH",
"1141 213 OFFCURVE",
"1206 180 OFFCURVE",
"1212 167 CURVE SMOOTH",
"1213 165 OFFCURVE",
"1212 165 OFFCURVE",
"1202 169 CURVE SMOOTH"
);
},
{
closed = 1;
nodes = (
"708 425 OFFCURVE",
"571 452 OFFCURVE",
"528 459 CURVE SMOOTH",
"491 465 OFFCURVE",
"426 471 OFFCURVE",
"420 475 CURVE SMOOTH",
"414 479 OFFCURVE",
"544 517 OFFCURVE",
"572 528 CURVE SMOOTH",
"675 569 OFFCURVE",
"718 603 OFFCURVE",
"779 692 CURVE SMOOTH",
"801 724 OFFCURVE",
"813 747 OFFCURVE",
"826 781 CURVE SMOOTH",
"853 851 OFFCURVE",
"870 893 OFFCURVE",
"913 902 CURVE SMOOTH",
"933 906 OFFCURVE",
"938 907 OFFCURVE",
"964 906 CURVE SMOOTH",
"987 905 OFFCURVE",
"1022 898 OFFCURVE",
"1022 884 CURVE SMOOTH",
"1022 883 OFFCURVE",
"1015 875 OFFCURVE",
"1010 866 CURVE SMOOTH",
"999 846 OFFCURVE",
"974 798 OFFCURVE",
"960 765 CURVE SMOOTH",
"905 635 OFFCURVE",
"834 576 OFFCURVE",
"692 514 CURVE SMOOTH",
"628 486 OFFCURVE",
"595 487 OFFCURVE",
"628 475 CURVE SMOOTH",
"663 462 OFFCURVE",
"728 430 OFFCURVE",
"734 417 CURVE SMOOTH",
"735 415 OFFCURVE",
"734 415 OFFCURVE",
"724 419 CURVE SMOOTH"
);
},
{
closed = 1;
nodes = (
"148 195 OFFCURVE",
"11 222 OFFCURVE",
"-32 229 CURVE SMOOTH",
"-69 235 OFFCURVE",
"-134 241 OFFCURVE",
"-140 245 CURVE SMOOTH",
"-146 249 OFFCURVE",
"-16 287 OFFCURVE",
"12 298 CURVE SMOOTH",
"115 339 OFFCURVE",
"158 373 OFFCURVE",
"219 462 CURVE SMOOTH",
"241 494 OFFCURVE",
"253 517 OFFCURVE",
"266 551 CURVE SMOOTH",
"293 621 OFFCURVE",
"310 663 OFFCURVE",
"353 672 CURVE SMOOTH",
"373 676 OFFCURVE",
"378 677 OFFCURVE",
"404 676 CURVE SMOOTH",
"427 675 OFFCURVE",
"462 668 OFFCURVE",
"462 654 CURVE SMOOTH",
"462 653 OFFCURVE",
"455 645 OFFCURVE",
"450 636 CURVE SMOOTH",
"439 616 OFFCURVE",
"414 568 OFFCURVE",
"400 535 CURVE SMOOTH",
"345 405 OFFCURVE",
"274 346 OFFCURVE",
"132 284 CURVE SMOOTH",
"68 256 OFFCURVE",
"35 257 OFFCURVE",
"68 245 CURVE SMOOTH",
"103 232 OFFCURVE",
"168 200 OFFCURVE",
"174 187 CURVE SMOOTH",
"175 185 OFFCURVE",
"174 185 OFFCURVE",
"164 189 CURVE SMOOTH"
);
},
{
closed = 1;
nodes = (
"1116 18 OFFCURVE",
"978 22 OFFCURVE",
"849 16 CURVE SMOOTH",
"732 11 OFFCURVE",
"672 12 OFFCURVE",
"510 6 CURVE SMOOTH",
"382 1 OFFCURVE",
"341 5 OFFCURVE",
"307 6 CURVE SMOOTH",
"177 10 OFFCURVE",
"87 23 OFFCURVE",
"51 31 CURVE SMOOTH",
"28 36 OFFCURVE",
"-4 54 OFFCURVE",
"-37 80 CURVE SMOOTH",
"-59 97 OFFCURVE",
"-69 120 OFFCURVE",
"-53 120 CURVE SMOOTH",
"-51 120 OFFCURVE",
"-34 117 OFFCURVE",
"-18 114 CURVE SMOOTH",
"50 101 OFFCURVE",
"65 101 OFFCURVE",
"219 99 CURVE SMOOTH",
"300 98 OFFCURVE",
"438 99 OFFCURVE",
"538 101 CURVE SMOOTH",
"632 103 OFFCURVE",
"782 104 OFFCURVE",
"869 104 CURVE SMOOTH",
"1012 104 OFFCURVE",
"1031 104 OFFCURVE",
"1054 100 CURVE SMOOTH",
"1120 89 OFFCURVE",
"1215 60 OFFCURVE",
"1266 34 CURVE SMOOTH",
"1284 25 OFFCURVE",
"1295 10 OFFCURVE",
"1291 1 CURVE SMOOTH",
"1288 -5 OFFCURVE",
"1278 -4 OFFCURVE",
"1241 1 CURVE SMOOTH"
);
}
);
width = 1350;
},
{
layerId = "58A037AB-7B5C-4700-A231-207A2D0F9E5C";
paths = (
{
closed = 1;
nodes = (
"536 184 OFFCURVE",
"510 186 OFFCURVE",
"489 195 CURVE SMOOTH",
"466 205 OFFCURVE",
"448 230 OFFCURVE",
"434 269 CURVE SMOOTH",
"427 289 OFFCURVE",
"421 302 OFFCURVE",
"411 312 CURVE SMOOTH",
"401 322 OFFCURVE",
"398 330 OFFCURVE",
"401 338 CURVE SMOOTH",
"404 347 OFFCURVE",
"411 351 OFFCURVE",
"425 351 CURVE SMOOTH",
"456 351 OFFCURVE",
"500 349 OFFCURVE",
"506 347 CURVE SMOOTH",
"512 345 OFFCURVE",
"529 335 OFFCURVE",
"536 322 CURVE SMOOTH",
"537 320 OFFCURVE",
"542 312 OFFCURVE",
"548 299 CURVE SMOOTH",
"551 293 OFFCURVE",
"557 279 OFFCURVE",
"564 266 CURVE SMOOTH",
"578 241 OFFCURVE",
"583 235 OFFCURVE",
"600 233 CURVE SMOOTH",
"608 232 OFFCURVE",
"621 227 OFFCURVE",
"621 216 CURVE SMOOTH",
"621 208 OFFCURVE",
"617 202 OFFCURVE",
"598 193 CURVE SMOOTH",
"585 187 OFFCURVE",
"578 184 OFFCURVE",
"558 184 CURVE SMOOTH"
);
},
{
closed = 1;
nodes = (
"746 183 OFFCURVE",
"720 186 OFFCURVE",
"699 195 CURVE SMOOTH",
"676 205 OFFCURVE",
"658 230 OFFCURVE",
"644 269 CURVE SMOOTH",
"637 289 OFFCURVE",
"631 302 OFFCURVE",
"621 312 CURVE SMOOTH",
"611 322 OFFCURVE",
"608 330 OFFCURVE",
"611 338 CURVE SMOOTH",
"614 347 OFFCURVE",
"621 351 OFFCURVE",
"635 351 CURVE SMOOTH",
"666 351 OFFCURVE",
"710 349 OFFCURVE",
"716 347 CURVE SMOOTH",
"722 345 OFFCURVE",
"740 335 OFFCURVE",
"746 322 CURVE SMOOTH",
"747 320 OFFCURVE",
"752 312 OFFCURVE",
"758 299 CURVE SMOOTH",
"761 293 OFFCURVE",
"767 279 OFFCURVE",
"774 266 CURVE SMOOTH",
"788 241 OFFCURVE",
"793 235 OFFCURVE",
"810 233 CURVE SMOOTH",
"818 232 OFFCURVE",
"831 227 OFFCURVE",
"831 216 CURVE SMOOTH",
"831 208 OFFCURVE",
"826 202 OFFCURVE",
"808 193 CURVE SMOOTH",
"796 187 OFFCURVE",
"788 185 OFFCURVE",
"768 184 CURVE SMOOTH"
);
},
{
closed = 1;
nodes = (
"1186 176 OFFCURVE",
"1049 202 OFFCURVE",
"1006 209 CURVE SMOOTH",
"969 215 OFFCURVE",
"904 221 OFFCURVE",
"898 225 CURVE SMOOTH",
"892 229 OFFCURVE",
"1022 267 OFFCURVE",
"1050 278 CURVE SMOOTH",
"1153 319 OFFCURVE",
"1196 353 OFFCURVE",
"1257 442 CURVE SMOOTH",
"1278 475 OFFCURVE",
"1291 497 OFFCURVE",
"1304 531 CURVE SMOOTH",
"1332 600 OFFCURVE",
"1348 643 OFFCURVE",
"1391 652 CURVE SMOOTH",
"1411 656 OFFCURVE",
"1416 657 OFFCURVE",
"1442 656 CURVE SMOOTH",
"1465 655 OFFCURVE",
"1500 648 OFFCURVE",
"1500 634 CURVE SMOOTH",
"1500 633 OFFCURVE",
"1493 625 OFFCURVE",
"1488 616 CURVE SMOOTH",
"1477 596 OFFCURVE",
"1452 548 OFFCURVE",
"1438 515 CURVE SMOOTH",
"1384 384 OFFCURVE",
"1312 326 OFFCURVE",
"1170 264 CURVE SMOOTH",
"1107 234 OFFCURVE",
"1073 237 OFFCURVE",
"1106 225 CURVE SMOOTH",
"1141 213 OFFCURVE",
"1206 180 OFFCURVE",
"1212 167 CURVE SMOOTH",
"1213 165 OFFCURVE",
"1212 165 OFFCURVE",
"1202 169 CURVE SMOOTH"
);
},
{
closed = 1;
nodes = (
"708 425 OFFCURVE",
"571 452 OFFCURVE",
"528 459 CURVE SMOOTH",
"491 465 OFFCURVE",
"426 471 OFFCURVE",
"420 475 CURVE SMOOTH",
"414 479 OFFCURVE",
"544 517 OFFCURVE",
"572 528 CURVE SMOOTH",
"675 569 OFFCURVE",
"718 603 OFFCURVE",
"779 692 CURVE SMOOTH",
"801 724 OFFCURVE",
"813 747 OFFCURVE",
"826 781 CURVE SMOOTH",
"853 851 OFFCURVE",
"870 893 OFFCURVE",
"913 902 CURVE SMOOTH",
"933 906 OFFCURVE",
"938 907 OFFCURVE",
"964 906 CURVE SMOOTH",
"987 905 OFFCURVE",
"1022 898 OFFCURVE",
"1022 884 CURVE SMOOTH",
"1022 883 OFFCURVE",
"1015 875 OFFCURVE",
"1010 866 CURVE SMOOTH",
"999 846 OFFCURVE",
"974 798 OFFCURVE",
"960 765 CURVE SMOOTH",
"905 635 OFFCURVE",
"834 576 OFFCURVE",
"692 514 CURVE SMOOTH",
"628 486 OFFCURVE",
"595 487 OFFCURVE",
"628 475 CURVE SMOOTH",
"663 462 OFFCURVE",
"728 430 OFFCURVE",
"734 417 CURVE SMOOTH",
"735 415 OFFCURVE",
"734 415 OFFCURVE",
"724 419 CURVE SMOOTH"
);
},
{
closed = 1;
nodes = (
"148 195 OFFCURVE",
"11 222 OFFCURVE",
"-32 229 CURVE SMOOTH",
"-69 235 OFFCURVE",
"-134 241 OFFCURVE",
"-140 245 CURVE SMOOTH",
"-146 249 OFFCURVE",
"-16 287 OFFCURVE",
"12 298 CURVE SMOOTH",
"115 339 OFFCURVE",
"158 373 OFFCURVE",
"219 462 CURVE SMOOTH",
"241 494 OFFCURVE",
"253 517 OFFCURVE",
"266 551 CURVE SMOOTH",
"293 621 OFFCURVE",
"310 663 OFFCURVE",
"353 672 CURVE SMOOTH",
"373 676 OFFCURVE",
"378 677 OFFCURVE",
"404 676 CURVE SMOOTH",
"427 675 OFFCURVE",
"462 668 OFFCURVE",
"462 654 CURVE SMOOTH",
"462 653 OFFCURVE",
"455 645 OFFCURVE",
"450 636 CURVE SMOOTH",
"439 616 OFFCURVE",
"414 568 OFFCURVE",
"400 535 CURVE SMOOTH",
"345 405 OFFCURVE",
"274 346 OFFCURVE",
"132 284 CURVE SMOOTH",
"68 256 OFFCURVE",
"35 257 OFFCURVE",
"68 245 CURVE SMOOTH",
"103 232 OFFCURVE",
"168 200 OFFCURVE",
"174 187 CURVE SMOOTH",
"175 185 OFFCURVE",
"174 185 OFFCURVE",
"164 189 CURVE SMOOTH"
);
},
{
closed = 1;
nodes = (
"1116 18 OFFCURVE",
"978 22 OFFCURVE",
"849 16 CURVE SMOOTH",
"732 11 OFFCURVE",
"672 12 OFFCURVE",
"510 6 CURVE SMOOTH",
"382 1 OFFCURVE",
"341 5 OFFCURVE",
"307 6 CURVE SMOOTH",
"177 10 OFFCURVE",
"87 23 OFFCURVE",
"51 31 CURVE SMOOTH",
"28 36 OFFCURVE",
"-4 54 OFFCURVE",
"-37 80 CURVE SMOOTH",
"-59 97 OFFCURVE",
"-69 120 OFFCURVE",
"-53 120 CURVE SMOOTH",
"-51 120 OFFCURVE",
"-34 117 OFFCURVE",
"-18 114 CURVE SMOOTH",
"50 101 OFFCURVE",
"65 101 OFFCURVE",
"219 99 CURVE SMOOTH",
"300 98 OFFCURVE",
"438 99 OFFCURVE",
"538 101 CURVE SMOOTH",
"632 103 OFFCURVE",
"782 104 OFFCURVE",
"869 104 CURVE SMOOTH",
"1012 104 OFFCURVE",
"1031 104 OFFCURVE",
"1054 100 CURVE SMOOTH",
"1120 89 OFFCURVE",
"1215 60 OFFCURVE",
"1266 34 CURVE SMOOTH",
"1284 25 OFFCURVE",
"1295 10 OFFCURVE",
"1291 1 CURVE SMOOTH",
"1288 -5 OFFCURVE",
"1278 -4 OFFCURVE",
"1241 1 CURVE SMOOTH"
);
}
);
width = 1350;
}
);
unicode = 0033;
},
{
glyphname = four;
lastChange = "2019-02-22 04:33:48 +0000";
layers = (
{
layerId = "4D144F8D-878C-4AC1-82CB-BE7AA35E5AC4";
paths = (
{
closed = 1;
nodes = (
"1116 18 OFFCURVE",
"978 22 OFFCURVE",
"849 16 CURVE SMOOTH",
"732 11 OFFCURVE",
"672 12 OFFCURVE",
"510 6 CURVE SMOOTH",
"382 1 OFFCURVE",
"341 5 OFFCURVE",
"307 6 CURVE SMOOTH",
"177 10 OFFCURVE",
"87 23 OFFCURVE",
"51 31 CURVE SMOOTH",
"28 36 OFFCURVE",
"-4 54 OFFCURVE",
"-37 80 CURVE SMOOTH",
"-59 97 OFFCURVE",
"-69 120 OFFCURVE",
"-53 120 CURVE SMOOTH",
"-51 120 OFFCURVE",
"-34 117 OFFCURVE",
"-18 114 CURVE SMOOTH",
"50 101 OFFCURVE",
"65 101 OFFCURVE",
"219 99 CURVE SMOOTH",
"300 98 OFFCURVE",
"438 99 OFFCURVE",
"538 101 CURVE SMOOTH",
"632 103 OFFCURVE",
"782 104 OFFCURVE",
"869 104 CURVE SMOOTH",
"1012 104 OFFCURVE",
"1031 104 OFFCURVE",
"1054 100 CURVE SMOOTH",
"1120 89 OFFCURVE",
"1215 60 OFFCURVE",
"1266 34 CURVE SMOOTH",
"1284 25 OFFCURVE",
"1295 10 OFFCURVE",
"1291 1 CURVE SMOOTH",
"1288 -5 OFFCURVE",
"1278 -4 OFFCURVE",
"1241 1 CURVE SMOOTH"
);
},
{
closed = 1;
nodes = (
"1186 176 OFFCURVE",
"1049 202 OFFCURVE",
"1006 209 CURVE SMOOTH",
"969 215 OFFCURVE",
"904 221 OFFCURVE",
"898 225 CURVE SMOOTH",
"892 229 OFFCURVE",
"1022 267 OFFCURVE",
"1050 278 CURVE SMOOTH",
"1153 319 OFFCURVE",
"1196 353 OFFCURVE",
"1257 442 CURVE SMOOTH",
"1278 475 OFFCURVE",
"1291 497 OFFCURVE",
"1304 531 CURVE SMOOTH",
"1332 600 OFFCURVE",
"1348 643 OFFCURVE",
"1391 652 CURVE SMOOTH",
"1411 656 OFFCURVE",
"1416 657 OFFCURVE",
"1442 656 CURVE SMOOTH",
"1465 655 OFFCURVE",
"1500 648 OFFCURVE",
"1500 634 CURVE SMOOTH",
"1500 633 OFFCURVE",
"1493 625 OFFCURVE",
"1488 616 CURVE SMOOTH",
"1477 596 OFFCURVE",
"1452 548 OFFCURVE",
"1438 515 CURVE SMOOTH",
"1384 384 OFFCURVE",
"1312 326 OFFCURVE",
"1170 264 CURVE SMOOTH",
"1107 234 OFFCURVE",
"1073 237 OFFCURVE",
"1106 225 CURVE SMOOTH",
"1141 213 OFFCURVE",
"1206 180 OFFCURVE",
"1212 167 CURVE SMOOTH",
"1213 165 OFFCURVE",
"1212 165 OFFCURVE",
"1202 169 CURVE SMOOTH"
);
},
{
closed = 1;
nodes = (
"708 425 OFFCURVE",
"571 452 OFFCURVE",
"528 459 CURVE SMOOTH",
"491 465 OFFCURVE",
"426 471 OFFCURVE",
"420 475 CURVE SMOOTH",
"414 479 OFFCURVE",
"544 517 OFFCURVE",
"572 528 CURVE SMOOTH",
"675 569 OFFCURVE",
"718 603 OFFCURVE",
"779 692 CURVE SMOOTH",
"801 724 OFFCURVE",
"813 747 OFFCURVE",
"826 781 CURVE SMOOTH",
"853 851 OFFCURVE",
"870 893 OFFCURVE",
"913 902 CURVE SMOOTH",
"933 906 OFFCURVE",
"938 907 OFFCURVE",
"964 906 CURVE SMOOTH",
"987 905 OFFCURVE",
"1022 898 OFFCURVE",
"1022 884 CURVE SMOOTH",
"1022 883 OFFCURVE",
"1015 875 OFFCURVE",
"1010 866 CURVE SMOOTH",
"999 846 OFFCURVE",
"974 798 OFFCURVE",
"960 765 CURVE SMOOTH",
"905 635 OFFCURVE",
"834 576 OFFCURVE",
"692 514 CURVE SMOOTH",
"628 486 OFFCURVE",
"595 487 OFFCURVE",
"628 475 CURVE SMOOTH",
"663 462 OFFCURVE",
"728 430 OFFCURVE",
"734 417 CURVE SMOOTH",
"735 415 OFFCURVE",
"734 415 OFFCURVE",
"724 419 CURVE SMOOTH"
);
},
{
closed = 1;
nodes = (
"148 195 OFFCURVE",
"11 222 OFFCURVE",
"-32 229 CURVE SMOOTH",
"-69 235 OFFCURVE",
"-134 241 OFFCURVE",
"-140 245 CURVE SMOOTH",
"-146 249 OFFCURVE",
"-16 287 OFFCURVE",
"12 298 CURVE SMOOTH",
"115 339 OFFCURVE",
"158 373 OFFCURVE",
"219 462 CURVE SMOOTH",
"241 494 OFFCURVE",
"253 517 OFFCURVE",
"266 551 CURVE SMOOTH",
"293 621 OFFCURVE",
"310 663 OFFCURVE",
"353 672 CURVE SMOOTH",
"373 676 OFFCURVE",
"378 677 OFFCURVE",
"404 676 CURVE SMOOTH",
"427 675 OFFCURVE",
"462 668 OFFCURVE",
"462 654 CURVE SMOOTH",
"462 653 OFFCURVE",
"455 645 OFFCURVE",
"450 636 CURVE SMOOTH",
"439 616 OFFCURVE",
"414 568 OFFCURVE",
"400 535 CURVE SMOOTH",
"345 405 OFFCURVE",
"274 346 OFFCURVE",
"132 284 CURVE SMOOTH",
"68 256 OFFCURVE",
"35 257 OFFCURVE",
"68 245 CURVE SMOOTH",
"103 232 OFFCURVE",
"168 200 OFFCURVE",
"174 187 CURVE SMOOTH",
"175 185 OFFCURVE",
"174 185 OFFCURVE",
"164 189 CURVE SMOOTH"
);
},
{
closed = 1;
nodes = (
"653 194 OFFCURVE",
"627 196 OFFCURVE",
"606 205 CURVE SMOOTH",
"583 215 OFFCURVE",
"565 240 OFFCURVE",
"551 279 CURVE SMOOTH",
"544 299 OFFCURVE",
"538 312 OFFCURVE",
"528 322 CURVE SMOOTH",
"518 332 OFFCURVE",
"515 340 OFFCURVE",
"518 348 CURVE SMOOTH",
"521 357 OFFCURVE",
"528 361 OFFCURVE",
"542 361 CURVE SMOOTH",
"573 361 OFFCURVE",
"617 359 OFFCURVE",
"623 357 CURVE SMOOTH",
"629 355 OFFCURVE",
"646 345 OFFCURVE",
"653 332 CURVE SMOOTH",
"654 330 OFFCURVE",
"659 322 OFFCURVE",
"665 309 CURVE SMOOTH",
"668 303 OFFCURVE",
"674 289 OFFCURVE",
"681 276 CURVE SMOOTH",
"695 251 OFFCURVE",
"700 245 OFFCURVE",
"717 243 CURVE SMOOTH",
"725 242 OFFCURVE",
"738 237 OFFCURVE",
"738 226 CURVE SMOOTH",
"738 218 OFFCURVE",
"734 212 OFFCURVE",
"715 203 CURVE SMOOTH",
"702 197 OFFCURVE",
"695 194 OFFCURVE",
"675 194 CURVE SMOOTH"
);
}
);
width = 1350;
},
{
layerId = "58A037AB-7B5C-4700-A231-207A2D0F9E5C";
paths = (
{
closed = 1;
nodes = (
"1116 18 OFFCURVE",
"978 22 OFFCURVE",
"849 16 CURVE SMOOTH",
"732 11 OFFCURVE",
"672 12 OFFCURVE",
"510 6 CURVE SMOOTH",
"382 1 OFFCURVE",
"341 5 OFFCURVE",
"307 6 CURVE SMOOTH",
"177 10 OFFCURVE",
"87 23 OFFCURVE",
"51 31 CURVE SMOOTH",
"28 36 OFFCURVE",
"-4 54 OFFCURVE",
"-37 80 CURVE SMOOTH",
"-59 97 OFFCURVE",
"-69 120 OFFCURVE",
"-53 120 CURVE SMOOTH",
"-51 120 OFFCURVE",
"-34 117 OFFCURVE",
"-18 114 CURVE SMOOTH",
"50 101 OFFCURVE",
"65 101 OFFCURVE",
"219 99 CURVE SMOOTH",
"300 98 OFFCURVE",
"438 99 OFFCURVE",
"538 101 CURVE SMOOTH",
"632 103 OFFCURVE",
"782 104 OFFCURVE",
"869 104 CURVE SMOOTH",
"1012 104 OFFCURVE",
"1031 104 OFFCURVE",
"1054 100 CURVE SMOOTH",
"1120 89 OFFCURVE",
"1215 60 OFFCURVE",
"1266 34 CURVE SMOOTH",
"1284 25 OFFCURVE",
"1295 10 OFFCURVE",
"1291 1 CURVE SMOOTH",
"1288 -5 OFFCURVE",
"1278 -4 OFFCURVE",
"1241 1 CURVE SMOOTH"
);
},
{
closed = 1;
nodes = (
"1186 176 OFFCURVE",
"1049 202 OFFCURVE",
"1006 209 CURVE SMOOTH",
"969 215 OFFCURVE",
"904 221 OFFCURVE",
"898 225 CURVE SMOOTH",
"892 229 OFFCURVE",
"1022 267 OFFCURVE",
"1050 278 CURVE SMOOTH",
"1153 319 OFFCURVE",
"1196 353 OFFCURVE",
"1257 442 CURVE SMOOTH",
"1278 475 OFFCURVE",
"1291 497 OFFCURVE",
"1304 531 CURVE SMOOTH",
"1332 600 OFFCURVE",
"1348 643 OFFCURVE",
"1391 652 CURVE SMOOTH",
"1411 656 OFFCURVE",
"1416 657 OFFCURVE",
"1442 656 CURVE SMOOTH",
"1465 655 OFFCURVE",
"1500 648 OFFCURVE",
"1500 634 CURVE SMOOTH",
"1500 633 OFFCURVE",
"1493 625 OFFCURVE",
"1488 616 CURVE SMOOTH",
"1477 596 OFFCURVE",
"1452 548 OFFCURVE",
"1438 515 CURVE SMOOTH",
"1384 384 OFFCURVE",
"1312 326 OFFCURVE",
"1170 264 CURVE SMOOTH",
"1107 234 OFFCURVE",
"1073 237 OFFCURVE",
"1106 225 CURVE SMOOTH",
"1141 213 OFFCURVE",
"1206 180 OFFCURVE",
"1212 167 CURVE SMOOTH",
"1213 165 OFFCURVE",
"1212 165 OFFCURVE",
"1202 169 CURVE SMOOTH"
);
},
{
closed = 1;
nodes = (
"708 425 OFFCURVE",
"571 452 OFFCURVE",
"528 459 CURVE SMOOTH",
"491 465 OFFCURVE",
"426 471 OFFCURVE",
"420 475 CURVE SMOOTH",
"414 479 OFFCURVE",
"544 517 OFFCURVE",
"572 528 CURVE SMOOTH",
"675 569 OFFCURVE",
"718 603 OFFCURVE",
"779 692 CURVE SMOOTH",
"801 724 OFFCURVE",
"813 747 OFFCURVE",
"826 781 CURVE SMOOTH",
"853 851 OFFCURVE",
"870 893 OFFCURVE",
"913 902 CURVE SMOOTH",
"933 906 OFFCURVE",
"938 907 OFFCURVE",
"964 906 CURVE SMOOTH",
"987 905 OFFCURVE",
"1022 898 OFFCURVE",
"1022 884 CURVE SMOOTH",
"1022 883 OFFCURVE",
"1015 875 OFFCURVE",
"1010 866 CURVE SMOOTH",
"999 846 OFFCURVE",
"974 798 OFFCURVE",
"960 765 CURVE SMOOTH",
"905 635 OFFCURVE",
"834 576 OFFCURVE",
"692 514 CURVE SMOOTH",
"628 486 OFFCURVE",
"595 487 OFFCURVE",
"628 475 CURVE SMOOTH",
"663 462 OFFCURVE",
"728 430 OFFCURVE",
"734 417 CURVE SMOOTH",
"735 415 OFFCURVE",
"734 415 OFFCURVE",
"724 419 CURVE SMOOTH"
);
},
{
closed = 1;
nodes = (
"148 195 OFFCURVE",
"11 222 OFFCURVE",
"-32 229 CURVE SMOOTH",
"-69 235 OFFCURVE",
"-134 241 OFFCURVE",
"-140 245 CURVE SMOOTH",
"-146 249 OFFCURVE",
"-16 287 OFFCURVE",
"12 298 CURVE SMOOTH",
"115 339 OFFCURVE",
"158 373 OFFCURVE",
"219 462 CURVE SMOOTH",
"241 494 OFFCURVE",
"253 517 OFFCURVE",
"266 551 CURVE SMOOTH",
"293 621 OFFCURVE",
"310 663 OFFCURVE",
"353 672 CURVE SMOOTH",
"373 676 OFFCURVE",
"378 677 OFFCURVE",
"404 676 CURVE SMOOTH",
"427 675 OFFCURVE",
"462 668 OFFCURVE",
"462 654 CURVE SMOOTH",
"462 653 OFFCURVE",
"455 645 OFFCURVE",
"450 636 CURVE SMOOTH",
"439 616 OFFCURVE",
"414 568 OFFCURVE",
"400 535 CURVE SMOOTH",
"345 405 OFFCURVE",
"274 346 OFFCURVE",
"132 284 CURVE SMOOTH",
"68 256 OFFCURVE",
"35 257 OFFCURVE",
"68 245 CURVE SMOOTH",
"103 232 OFFCURVE",
"168 200 OFFCURVE",
"174 187 CURVE SMOOTH",
"175 185 OFFCURVE",
"174 185 OFFCURVE",
"164 189 CURVE SMOOTH"
);
},
{
closed = 1;
nodes = (
"653 194 OFFCURVE",
"627 196 OFFCURVE",
"606 205 CURVE SMOOTH",
"583 215 OFFCURVE",
"565 240 OFFCURVE",
"551 279 CURVE SMOOTH",
"544 299 OFFCURVE",
"538 312 OFFCURVE",
"528 322 CURVE SMOOTH",
"518 332 OFFCURVE",
"515 340 OFFCURVE",
"518 348 CURVE SMOOTH",
"521 357 OFFCURVE",
"528 361 OFFCURVE",
"542 361 CURVE SMOOTH",
"573 361 OFFCURVE",
"617 359 OFFCURVE",
"623 357 CURVE SMOOTH",
"629 355 OFFCURVE",
"646 345 OFFCURVE",
"653 332 CURVE SMOOTH",
"654 330 OFFCURVE",
"659 322 OFFCURVE",
"665 309 CURVE SMOOTH",
"668 303 OFFCURVE",
"674 289 OFFCURVE",
"681 276 CURVE SMOOTH",
"695 251 OFFCURVE",
"700 245 OFFCURVE",
"717 243 CURVE SMOOTH",
"725 242 OFFCURVE",
"738 237 OFFCURVE",
"738 226 CURVE SMOOTH",
"738 218 OFFCURVE",
"734 212 OFFCURVE",
"715 203 CURVE SMOOTH",
"702 197 OFFCURVE",
"695 194 OFFCURVE",
"675 194 CURVE SMOOTH"
);
}
);
width = 1350;
}
);
unicode = 0034;
},
{
glyphname = underscore;
lastChange = "2019-02-22 04:33:48 +0000";
layers = (
{
components = (
{
name = petaste;
transform = "{1, 0, 0, 1, 580, 0}";
}
);
layerId = "4D144F8D-878C-4AC1-82CB-BE7AA35E5AC4";
paths = (
{
closed = 1;
nodes = (
"746 244 OFFCURVE",
"670 284 OFFCURVE",
"652 330 CURVE SMOOTH",
"647 341 OFFCURVE",
"647 365 OFFCURVE",
"653 383 CURVE SMOOTH",
"662 415 OFFCURVE",
"689 434 OFFCURVE",
"755 455 CURVE SMOOTH",
"957 519 OFFCURVE",
"1067 513 OFFCURVE",
"1293 483 CURVE SMOOTH",
"1445 463 OFFCURVE",
"1545 425 OFFCURVE",
"1595 374 CURVE SMOOTH",
"1623 347 OFFCURVE",
"1633 324 OFFCURVE",
"1633 281 CURVE SMOOTH",
"1633 231 OFFCURVE",
"1614 228 OFFCURVE",
"1534 217 CURVE SMOOTH",
"1493 211 OFFCURVE",
"1367 229 OFFCURVE",
"1350 241 CURVE SMOOTH",
"1338 249 OFFCURVE",
"1335 254 OFFCURVE",
"1341 262 CURVE SMOOTH",
"1346 270 OFFCURVE",
"1358 273 OFFCURVE",
"1389 275 CURVE SMOOTH",
"1422 277 OFFCURVE",
"1440 288 OFFCURVE",
"1442 309 CURVE SMOOTH",
"1443 321 OFFCURVE",
"1437 331 OFFCURVE",
"1415 356 CURVE SMOOTH",
"1354 423 OFFCURVE",
"1237 453 OFFCURVE",
"1074 453 CURVE SMOOTH",
"911 453 OFFCURVE",
"818 418 OFFCURVE",
"811 356 CURVE SMOOTH",
"807 316 OFFCURVE",
"846 280 OFFCURVE",
"928 266 CURVE SMOOTH",
"942 264 OFFCURVE",
"952 260 OFFCURVE",
"955 256 CURVE SMOOTH",
"963 249 OFFCURVE",
"955 222 OFFCURVE",
"943 217 CURVE SMOOTH",
"935 213 OFFCURVE",
"938 216 OFFCURVE",
"886 223 CURVE SMOOTH"
);
},
{
closed = 1;
nodes = (
"284 277 OFFCURVE",
"299 304 OFFCURVE",
"354 314 CURVE SMOOTH",
"407 324 OFFCURVE",
"416 345 OFFCURVE",
"382 379 CURVE SMOOTH",
"353 408 OFFCURVE",
"291 422 OFFCURVE",
"162 429 CURVE SMOOTH",
"43 435 OFFCURVE",
"19 445 OFFCURVE",
"34 484 CURVE SMOOTH",
"54 537 OFFCURVE",
"504 452 OFFCURVE",
"582 379 CURVE SMOOTH",
"635 330 OFFCURVE",
"615 294 OFFCURVE",
"522 266 CURVE SMOOTH",
"462 248 OFFCURVE",
"360 246 OFFCURVE",
"323 261 CURVE SMOOTH"
);
}
);
width = 1710;
},
{
components = (
{
name = petaste;
transform = "{1, 0, 0, 1, 580, 0}";
}
);
layerId = "58A037AB-7B5C-4700-A231-207A2D0F9E5C";
paths = (
{
closed = 1;
nodes = (
"746 244 OFFCURVE",
"670 284 OFFCURVE",
"652 330 CURVE SMOOTH",
"647 341 OFFCURVE",
"647 365 OFFCURVE",
"653 383 CURVE SMOOTH",
"662 415 OFFCURVE",
"689 434 OFFCURVE",
"755 455 CURVE SMOOTH",
"957 519 OFFCURVE",
"1067 513 OFFCURVE",
"1293 483 CURVE SMOOTH",
"1445 463 OFFCURVE",
"1545 425 OFFCURVE",
"1595 374 CURVE SMOOTH",
"1623 347 OFFCURVE",
"1633 324 OFFCURVE",
"1633 281 CURVE SMOOTH",
"1633 231 OFFCURVE",
"1614 228 OFFCURVE",
"1534 217 CURVE SMOOTH",
"1493 211 OFFCURVE",
"1367 229 OFFCURVE",
"1350 241 CURVE SMOOTH",
"1338 249 OFFCURVE",
"1335 254 OFFCURVE",
"1341 262 CURVE SMOOTH",
"1346 270 OFFCURVE",
"1358 273 OFFCURVE",
"1389 275 CURVE SMOOTH",
"1422 277 OFFCURVE",
"1440 288 OFFCURVE",
"1442 309 CURVE SMOOTH",
"1443 321 OFFCURVE",
"1437 331 OFFCURVE",
"1415 356 CURVE SMOOTH",
"1354 423 OFFCURVE",
"1237 453 OFFCURVE",
"1074 453 CURVE SMOOTH",
"911 453 OFFCURVE",
"818 418 OFFCURVE",
"811 356 CURVE SMOOTH",
"807 316 OFFCURVE",
"846 280 OFFCURVE",
"928 266 CURVE SMOOTH",
"942 264 OFFCURVE",
"952 260 OFFCURVE",
"955 256 CURVE SMOOTH",
"963 249 OFFCURVE",
"955 222 OFFCURVE",
"943 217 CURVE SMOOTH",
"935 213 OFFCURVE",
"938 216 OFFCURVE",
"886 223 CURVE SMOOTH"
);
},
{
closed = 1;
nodes = (
"284 277 OFFCURVE",
"299 304 OFFCURVE",
"354 314 CURVE SMOOTH",
"407 324 OFFCURVE",
"416 345 OFFCURVE",
"382 379 CURVE SMOOTH",
"353 408 OFFCURVE",
"291 422 OFFCURVE",
"162 429 CURVE SMOOTH",
"43 435 OFFCURVE",
"19 445 OFFCURVE",
"34 484 CURVE SMOOTH",
"54 537 OFFCURVE",
"504 452 OFFCURVE",
"582 379 CURVE SMOOTH",
"635 330 OFFCURVE",
"615 294 OFFCURVE",
"522 266 CURVE SMOOTH",
"462 248 OFFCURVE",
"360 246 OFFCURVE",
"323 261 CURVE SMOOTH"
);
}
);
width = 1710;
}
);
unicode = 005F;
},
{
glyphname = braceright;
lastChange = "2019-02-22 04:33:48 +0000";
layers = (
{
layerId = "4D144F8D-878C-4AC1-82CB-BE7AA35E5AC4";
paths = (
{
closed = 1;
nodes = (
"401 -600 OFFCURVE",
"299 -584 OFFCURVE",
"177 -556 CURVE SMOOTH",
"134 -546 OFFCURVE",
"83 -532 OFFCURVE",
"76 -530 CURVE SMOOTH",
"72 -529 OFFCURVE",
"71 -520 OFFCURVE",
"74 -519 CURVE SMOOTH",
"78 -518 OFFCURVE",
"113 -524 OFFCURVE",
"132 -526 CURVE SMOOTH",
"340 -548 OFFCURVE",
"455 -568 OFFCURVE",
"516 -563 CURVE SMOOTH",
"620 -554 OFFCURVE",
"729 -513 OFFCURVE",
"855 -442 CURVE SMOOTH",
"901 -416 OFFCURVE",
"972 -365 OFFCURVE",
"997 -357 CURVE SMOOTH",
"1023 -349 OFFCURVE",
"1044 -347 OFFCURVE",
"1078 -347 CURVE SMOOTH",
"1135 -347 OFFCURVE",
"1224 -359 OFFCURVE",
"1246 -370 CURVE SMOOTH",
"1268 -381 OFFCURVE",
"1261 -385 OFFCURVE",
"1240 -387 CURVE SMOOTH",
"1182 -393 OFFCURVE",
"1113 -421 OFFCURVE",
"1049 -453 CURVE SMOOTH",
"913 -521 OFFCURVE",
"920 -537 OFFCURVE",
"786 -574 CURVE SMOOTH",
"695 -599 OFFCURVE",
"589 -610 OFFCURVE",
"498 -605 CURVE SMOOTH"
);
}
);
width = 0;
},
{
layerId = "58A037AB-7B5C-4700-A231-207A2D0F9E5C";
paths = (
{
closed = 1;
nodes = (
"401 -600 OFFCURVE",
"299 -584 OFFCURVE",
"177 -556 CURVE SMOOTH",
"134 -546 OFFCURVE",
"83 -532 OFFCURVE",
"76 -530 CURVE SMOOTH",
"72 -529 OFFCURVE",
"71 -520 OFFCURVE",
"74 -519 CURVE SMOOTH",
"78 -518 OFFCURVE",
"113 -524 OFFCURVE",
"132 -526 CURVE SMOOTH",
"340 -548 OFFCURVE",
"455 -568 OFFCURVE",
"516 -563 CURVE SMOOTH",
"620 -554 OFFCURVE",
"729 -513 OFFCURVE",
"855 -442 CURVE SMOOTH",
"901 -416 OFFCURVE",
"972 -365 OFFCURVE",
"997 -357 CURVE SMOOTH",
"1023 -349 OFFCURVE",
"1044 -347 OFFCURVE",
"1078 -347 CURVE SMOOTH",
"1135 -347 OFFCURVE",
"1224 -359 OFFCURVE",
"1246 -370 CURVE SMOOTH",
"1268 -381 OFFCURVE",
"1261 -385 OFFCURVE",
"1240 -387 CURVE SMOOTH",
"1182 -393 OFFCURVE",
"1113 -421 OFFCURVE",
"1049 -453 CURVE SMOOTH",
"913 -521 OFFCURVE",
"920 -537 OFFCURVE",
"786 -574 CURVE SMOOTH",
"695 -599 OFFCURVE",
"589 -610 OFFCURVE",
"498 -605 CURVE SMOOTH"
);
}
);
width = 0;
}
);
unicode = 007D;
},
{
export = 0;
glyphname = oligon;
lastChange = "2019-02-22 04:33:48 +0000";
layers = (
{
layerId = "4D144F8D-878C-4AC1-82CB-BE7AA35E5AC4";
paths = (
{
closed = 1;
nodes = (
"1069 -44 OFFCURVE",
"1036 -33 OFFCURVE",
"1015 -28 CURVE SMOOTH",
"970 -17 OFFCURVE",
"926 -11 OFFCURVE",
"857 -7 CURVE SMOOTH",
"812 -4 OFFCURVE",
"586 -6 OFFCURVE",
"463 -9 CURVE SMOOTH",
"375 -12 OFFCURVE",
"299 -6 OFFCURVE",
"223 7 CURVE SMOOTH",
"109 29 OFFCURVE",
"39 68 OFFCURVE",
"31 118 CURVE SMOOTH",
"28 141 OFFCURVE",
"42 154 OFFCURVE",
"57 145 CURVE SMOOTH",
"85 129 OFFCURVE",
"154 117 OFFCURVE",
"226 108 CURVE SMOOTH",
"276 102 OFFCURVE",
"435 103 OFFCURVE",
"610 107 CURVE SMOOTH",
"774 113 OFFCURVE",
"818 112 OFFCURVE",
"851 107 CURVE SMOOTH",
"939 94 OFFCURVE",
"1014 58 OFFCURVE",
"1081 3 CURVE SMOOTH",
"1106 -18 OFFCURVE",
"1099 -64 OFFCURVE",
"1076 -49 CURVE SMOOTH"
);
}
);
width = 1127;
},
{
layerId = "58A037AB-7B5C-4700-A231-207A2D0F9E5C";
paths = (
{
closed = 1;
nodes = (
"1069 -44 OFFCURVE",
"1036 -33 OFFCURVE",
"1015 -28 CURVE SMOOTH",
"970 -17 OFFCURVE",
"926 -11 OFFCURVE",
"857 -7 CURVE SMOOTH",
"812 -4 OFFCURVE",
"586 -6 OFFCURVE",
"463 -9 CURVE SMOOTH",
"375 -12 OFFCURVE",
"299 -6 OFFCURVE",
"223 7 CURVE SMOOTH",
"109 29 OFFCURVE",
"39 68 OFFCURVE",
"31 118 CURVE SMOOTH",
"28 141 OFFCURVE",
"42 154 OFFCURVE",
"57 145 CURVE SMOOTH",
"85 129 OFFCURVE",
"154 117 OFFCURVE",
"226 108 CURVE SMOOTH",
"276 102 OFFCURVE",
"435 103 OFFCURVE",
"610 107 CURVE SMOOTH",
"774 113 OFFCURVE",
"818 112 OFFCURVE",
"851 107 CURVE SMOOTH",
"939 94 OFFCURVE",
"1014 58 OFFCURVE",
"1081 3 CURVE SMOOTH",
"1106 -18 OFFCURVE",
"1099 -64 OFFCURVE",
"1076 -49 CURVE SMOOTH"
);
}
);
width = 1127;
}
);
},
{
export = 0;
glyphname = newGlyph;
lastChange = "2019-02-22 04:33:48 +0000";
layers = (
{
layerId = "4D144F8D-878C-4AC1-82CB-BE7AA35E5AC4";
paths = (
{
closed = 1;
nodes = (
"363 -64 OFFCURVE",
"189 -30 OFFCURVE",
"105 15 CURVE",
"52 45 OFFCURVE",
"30 74 OFFCURVE",
"30 121 CURVE",
"30 161 OFFCURVE",
"37 165 OFFCURVE",
"112 178 CURVE",
"156 184 OFFCURVE",
"300 174 OFFCURVE",
"333 161 CURVE",
"359 152 OFFCURVE",
"355 135 OFFCURVE",
"326 130 CURVE",
"312 129 OFFCURVE",
"290 125 OFFCURVE",
"277 123 CURVE",
"223 115 OFFCURVE",
"227 80 OFFCURVE",
"283 43 CURVE",
"354 -3 OFFCURVE",
"445 -27 OFFCURVE",
"587 -34 CURVE",
"735 -42 OFFCURVE",
"866 -19 OFFCURVE",
"907 20 CURVE",
"953 66 OFFCURVE",
"913 112 OFFCURVE",
"805 134 CURVE",
"767 142 OFFCURVE",
"760 148 OFFCURVE",
"767 164 CURVE",
"774 183 OFFCURVE",
"788 184 OFFCURVE",
"871 169 CURVE",
"1011 145 OFFCURVE",
"1091 112 OFFCURVE",
"1101 74 CURVE",
"1103 64 OFFCURVE",
"1102 45 OFFCURVE",
"1097 30 CURVE",
"1090 12 OFFCURVE",
"1080 2 OFFCURVE",
"1055 -11 CURVE",
"1012 -32 OFFCURVE",
"925 -55 OFFCURVE",
"808 -73 CURVE",
"710 -87 OFFCURVE",
"712 -87 OFFCURVE",
"574 -79 CURVE"
);
},
{
closed = 1;
nodes = (
"465 68 OFFCURVE",
"443 78 OFFCURVE",
"443 91 CURVE",
"443 103 OFFCURVE",
"447 105 OFFCURVE",
"471 105 CURVE",
"504 105 OFFCURVE",
"529 123 OFFCURVE",
"529 148 CURVE",
"529 158 OFFCURVE",
"528 192 OFFCURVE",
"524 223 CURVE",
"518 298 OFFCURVE",
"526 306 OFFCURVE",
"606 310 CURVE",
"673 313 OFFCURVE",
"710 305 OFFCURVE",
"710 286 CURVE",
"710 275 OFFCURVE",
"704 271 OFFCURVE",
"682 270 CURVE",
"666 268 OFFCURVE",
"655 264 OFFCURVE",
"651 256 CURVE",
"649 251 OFFCURVE",
"651 224 OFFCURVE",
"655 195 CURVE",
"676 90 OFFCURVE",
"651 54 OFFCURVE",
"561 57 CURVE",
"541 58 OFFCURVE",
"517 59 OFFCURVE",
"507 60 CURVE"
);
},
{
closed = 1;
nodes = (
"509 458 OFFCURVE",
"485 488 OFFCURVE",
"485 497 CURVE",
"485 501 OFFCURVE",
"571 503 OFFCURVE",
"674 503 CURVE",
"850 503 OFFCURVE",
"864 503 OFFCURVE",
"861 490 CURVE",
"858 479 OFFCURVE",
"847 478 OFFCURVE",
"739 477 CURVE",
"671 476 OFFCURVE",
"621 472 OFFCURVE",
"621 468 CURVE",
"621 464 OFFCURVE",
"630 450 OFFCURVE",
"642 437 CURVE",
"676 398 OFFCURVE",
"667 376 OFFCURVE",
"617 376 CURVE",
"591 376 OFFCURVE",
"584 380 OFFCURVE",
"549 416 CURVE"
);
},
{
closed = 1;
nodes = (
"509 458 OFFCURVE",
"485 488 OFFCURVE",
"485 497 CURVE",
"485 501 OFFCURVE",
"571 503 OFFCURVE",
"674 503 CURVE",
"850 503 OFFCURVE",
"864 503 OFFCURVE",
"861 490 CURVE",
"858 479 OFFCURVE",
"847 478 OFFCURVE",
"739 477 CURVE",
"671 476 OFFCURVE",
"621 472 OFFCURVE",
"621 468 CURVE",
"621 464 OFFCURVE",
"630 450 OFFCURVE",
"642 437 CURVE",
"676 398 OFFCURVE",
"667 376 OFFCURVE",
"617 376 CURVE",
"591 376 OFFCURVE",
"584 380 OFFCURVE",
"549 416 CURVE"
);
}
);
width = 1132;
},
{
layerId = "58A037AB-7B5C-4700-A231-207A2D0F9E5C";
paths = (
{
closed = 1;
nodes = (
"363 -64 OFFCURVE",
"189 -30 OFFCURVE",
"105 15 CURVE",
"52 45 OFFCURVE",
"30 74 OFFCURVE",
"30 121 CURVE",
"30 161 OFFCURVE",
"37 165 OFFCURVE",
"112 178 CURVE",
"156 184 OFFCURVE",
"300 174 OFFCURVE",
"333 161 CURVE",
"359 152 OFFCURVE",
"355 135 OFFCURVE",
"326 130 CURVE",
"312 129 OFFCURVE",
"290 125 OFFCURVE",
"277 123 CURVE",
"223 115 OFFCURVE",
"227 80 OFFCURVE",
"283 43 CURVE",
"354 -3 OFFCURVE",
"445 -27 OFFCURVE",
"587 -34 CURVE",
"735 -42 OFFCURVE",
"866 -19 OFFCURVE",
"907 20 CURVE",
"953 66 OFFCURVE",
"913 112 OFFCURVE",
"805 134 CURVE",
"767 142 OFFCURVE",
"760 148 OFFCURVE",
"767 164 CURVE",
"774 183 OFFCURVE",
"788 184 OFFCURVE",
"871 169 CURVE",
"1011 145 OFFCURVE",
"1091 112 OFFCURVE",
"1101 74 CURVE",
"1103 64 OFFCURVE",
"1102 45 OFFCURVE",
"1097 30 CURVE",
"1090 12 OFFCURVE",
"1080 2 OFFCURVE",
"1055 -11 CURVE",
"1012 -32 OFFCURVE",
"925 -55 OFFCURVE",
"808 -73 CURVE",
"710 -87 OFFCURVE",
"712 -87 OFFCURVE",
"574 -79 CURVE"
);
},
{
closed = 1;
nodes = (
"465 68 OFFCURVE",
"443 78 OFFCURVE",
"443 91 CURVE",
"443 103 OFFCURVE",
"447 105 OFFCURVE",
"471 105 CURVE",
"504 105 OFFCURVE",
"529 123 OFFCURVE",
"529 148 CURVE",
"529 158 OFFCURVE",
"528 192 OFFCURVE",
"524 223 CURVE",
"518 298 OFFCURVE",
"526 306 OFFCURVE",
"606 310 CURVE",
"673 313 OFFCURVE",
"710 305 OFFCURVE",
"710 286 CURVE",
"710 275 OFFCURVE",
"704 271 OFFCURVE",
"682 270 CURVE",
"666 268 OFFCURVE",
"655 264 OFFCURVE",
"651 256 CURVE",
"649 251 OFFCURVE",
"651 224 OFFCURVE",
"655 195 CURVE",
"676 90 OFFCURVE",
"651 54 OFFCURVE",
"561 57 CURVE",
"541 58 OFFCURVE",
"517 59 OFFCURVE",
"507 60 CURVE"
);
},
{
closed = 1;
nodes = (
"509 458 OFFCURVE",
"485 488 OFFCURVE",
"485 497 CURVE",
"485 501 OFFCURVE",
"571 503 OFFCURVE",
"674 503 CURVE",
"850 503 OFFCURVE",
"864 503 OFFCURVE",
"861 490 CURVE",
"858 479 OFFCURVE",
"847 478 OFFCURVE",
"739 477 CURVE",
"671 476 OFFCURVE",
"621 472 OFFCURVE",
"621 468 CURVE",
"621 464 OFFCURVE",
"630 450 OFFCURVE",
"642 437 CURVE",
"676 398 OFFCURVE",
"667 376 OFFCURVE",
"617 376 CURVE",
"591 376 OFFCURVE",
"584 380 OFFCURVE",
"549 416 CURVE"
);
},
{
closed = 1;
nodes = (
"509 458 OFFCURVE",
"485 488 OFFCURVE",
"485 497 CURVE",
"485 501 OFFCURVE",
"571 503 OFFCURVE",
"674 503 CURVE",
"850 503 OFFCURVE",
"864 503 OFFCURVE",
"861 490 CURVE",
"858 479 OFFCURVE",
"847 478 OFFCURVE",
"739 477 CURVE",
"671 476 OFFCURVE",
"621 472 OFFCURVE",
"621 468 CURVE",
"621 464 OFFCURVE",
"630 450 OFFCURVE",
"642 437 CURVE",
"676 398 OFFCURVE",
"667 376 OFFCURVE",
"617 376 CURVE",
"591 376 OFFCURVE",
"584 380 OFFCURVE",
"549 416 CURVE"
);
}
);
width = 1132;
}
);
},
{
export = 0;
glyphname = petaste;
lastChange = "2019-02-22 04:33:48 +0000";
layers = (
{
layerId = "4D144F8D-878C-4AC1-82CB-BE7AA35E5AC4";
paths = (
{
closed = 1;
nodes = (
"420 -83 OFFCURVE",
"210 -24 CURVE SMOOTH",
"91 10 OFFCURVE",
"23 69 OFFCURVE",
"31 130 CURVE SMOOTH",
"34 151 OFFCURVE",
"44 157 OFFCURVE",
"85 168 CURVE SMOOTH",
"161 188 OFFCURVE",
"370 167 OFFCURVE",
"346 142 CURVE SMOOTH",
"342 138 OFFCURVE",
"317 130 OFFCURVE",
"292 125 CURVE SMOOTH",
"198 105 OFFCURVE",
"241 43 OFFCURVE",
"380 -1 CURVE SMOOTH",
"428 -17 OFFCURVE",
"481 -24 OFFCURVE",
"583 -27 CURVE SMOOTH",
"781 -35 OFFCURVE",
"912 -9 OFFCURVE",
"927 48 CURVE SMOOTH",
"936 82 OFFCURVE",
"907 106 OFFCURVE",
"834 126 CURVE SMOOTH",
"768 144 OFFCURVE",
"765 146 OFFCURVE",
"779 168 CURVE SMOOTH",
"786 179 OFFCURVE",
"802 179 OFFCURVE",
"876 166 CURVE SMOOTH",
"1056 134 OFFCURVE",
"1121 94 OFFCURVE",
"1094 25 CURVE SMOOTH",
"1085 2 OFFCURVE",
"1027 -24 OFFCURVE",
"945 -44 CURVE SMOOTH",
"734 -95 OFFCURVE"
);
}
);
width = 1130;
},
{
layerId = "58A037AB-7B5C-4700-A231-207A2D0F9E5C";
paths = (
{
closed = 1;
nodes = (
"420 -83 OFFCURVE",
"210 -24 CURVE SMOOTH",
"91 10 OFFCURVE",
"23 69 OFFCURVE",
"31 130 CURVE SMOOTH",
"34 151 OFFCURVE",
"44 157 OFFCURVE",
"85 168 CURVE SMOOTH",
"161 188 OFFCURVE",
"370 167 OFFCURVE",
"346 142 CURVE SMOOTH",
"342 138 OFFCURVE",
"317 130 OFFCURVE",
"292 125 CURVE SMOOTH",
"198 105 OFFCURVE",
"241 43 OFFCURVE",
"380 -1 CURVE SMOOTH",
"428 -17 OFFCURVE",
"481 -24 OFFCURVE",
"583 -27 CURVE SMOOTH",
"781 -35 OFFCURVE",
"912 -9 OFFCURVE",
"927 48 CURVE SMOOTH",
"936 82 OFFCURVE",
"907 106 OFFCURVE",
"834 126 CURVE SMOOTH",
"768 144 OFFCURVE",
"765 146 OFFCURVE",
"779 168 CURVE SMOOTH",
"786 179 OFFCURVE",
"802 179 OFFCURVE",
"876 166 CURVE SMOOTH",
"1056 134 OFFCURVE",
"1121 94 OFFCURVE",
"1094 25 CURVE SMOOTH",
"1085 2 OFFCURVE",
"1027 -24 OFFCURVE",
"945 -44 CURVE SMOOTH",
"734 -95 OFFCURVE"
);
}
);
width = 1130;
}
);
},
{
export = 0;
glyphname = yporroi;
lastChange = "2019-02-22 04:33:48 +0000";
layers = (
{
layerId = "4D144F8D-878C-4AC1-82CB-BE7AA35E5AC4";
paths = (
{
closed = 1;
nodes = (
"55 -57 OFFCURVE",
"43 -46 OFFCURVE",
"41 -37 CURVE SMOOTH",
"38 -24 OFFCURVE",
"45 -20 OFFCURVE",
"72 -20 CURVE SMOOTH",
"122 -20 OFFCURVE",
"130 -5 OFFCURVE",
"123 81 CURVE SMOOTH",
"115 177 OFFCURVE",
"120 182 OFFCURVE",
"225 178 CURVE SMOOTH",
"291 175 OFFCURVE",
"304 172 OFFCURVE",
"307 157 CURVE SMOOTH",
"310 144 OFFCURVE",
"304 140 OFFCURVE",
"279 140 CURVE SMOOTH",
"235 140 OFFCURVE",
"249 124 OFFCURVE",
"254 56 CURVE SMOOTH",
"260 -21 OFFCURVE",
"259 -30 OFFCURVE",
"240 -49 CURVE SMOOTH",
"223 -66 OFFCURVE",
"207 -70 OFFCURVE",
"157 -69 CURVE SMOOTH",
"122 -68 OFFCURVE",
"83 -65 OFFCURVE",
"69 -61 CURVE SMOOTH"
);
}
);
width = 338;
},
{
layerId = "58A037AB-7B5C-4700-A231-207A2D0F9E5C";
paths = (
{
closed = 1;
nodes = (
"55 -57 OFFCURVE",
"43 -46 OFFCURVE",
"41 -37 CURVE SMOOTH",
"38 -24 OFFCURVE",
"45 -20 OFFCURVE",
"72 -20 CURVE SMOOTH",
"122 -20 OFFCURVE",
"130 -5 OFFCURVE",
"123 81 CURVE SMOOTH",
"115 177 OFFCURVE",
"120 182 OFFCURVE",
"225 178 CURVE SMOOTH",
"291 175 OFFCURVE",
"304 172 OFFCURVE",
"307 157 CURVE SMOOTH",
"310 144 OFFCURVE",
"304 140 OFFCURVE",
"279 140 CURVE SMOOTH",
"235 140 OFFCURVE",
"249 124 OFFCURVE",
"254 56 CURVE SMOOTH",
"260 -21 OFFCURVE",
"259 -30 OFFCURVE",
"240 -49 CURVE SMOOTH",
"223 -66 OFFCURVE",
"207 -70 OFFCURVE",
"157 -69 CURVE SMOOTH",
"122 -68 OFFCURVE",
"83 -65 OFFCURVE",
"69 -61 CURVE SMOOTH"
);
}
);
width = 338;
}
);
},
{
export = 0;
glyphname = klasma;
lastChange = "2019-02-22 04:33:48 +0000";
layers = (
{
layerId = "4D144F8D-878C-4AC1-82CB-BE7AA35E5AC4";
paths = (
{
closed = 1;
nodes = (
"70 221 OFFCURVE",
"12 253 OFFCURVE",
"3 289 CURVE SMOOTH",
"-8 332 OFFCURVE",
"16 319 OFFCURVE",
"72 296 CURVE SMOOTH",
"187 249 OFFCURVE",
"266 238 OFFCURVE",
"218 279 CURVE SMOOTH",
"179 312 OFFCURVE",
"196 328 OFFCURVE",
"267 328 CURVE SMOOTH",
"332 328 OFFCURVE",
"374 315 OFFCURVE",
"383 289 CURVE SMOOTH",
"392 262 OFFCURVE",
"389 233 OFFCURVE",
"372 216 CURVE SMOOTH",
"357 201 OFFCURVE",
"343 199 OFFCURVE",
"284 199 CURVE SMOOTH",
"244 199 OFFCURVE",
"195 204 OFFCURVE",
"173 207 CURVE SMOOTH"
);
}
);
width = 388;
},
{
layerId = "58A037AB-7B5C-4700-A231-207A2D0F9E5C";
paths = (
{
closed = 1;
nodes = (
"70 221 OFFCURVE",
"12 253 OFFCURVE",
"3 289 CURVE SMOOTH",
"-8 332 OFFCURVE",
"16 319 OFFCURVE",
"72 296 CURVE SMOOTH",
"187 249 OFFCURVE",
"266 238 OFFCURVE",
"218 279 CURVE SMOOTH",
"179 312 OFFCURVE",
"196 328 OFFCURVE",
"267 328 CURVE SMOOTH",
"332 328 OFFCURVE",
"374 315 OFFCURVE",
"383 289 CURVE SMOOTH",
"392 262 OFFCURVE",
"389 233 OFFCURVE",
"372 216 CURVE SMOOTH",
"357 201 OFFCURVE",
"343 199 OFFCURVE",
"284 199 CURVE SMOOTH",
"244 199 OFFCURVE",
"195 204 OFFCURVE",
"173 207 CURVE SMOOTH"
);
}
);
width = 388;
}
);
},
{
export = 0;
glyphname = synthesmos;
lastChange = "2019-02-22 04:33:48 +0000";
layers = (
{
layerId = "4D144F8D-878C-4AC1-82CB-BE7AA35E5AC4";
paths = (
{
closed = 1;
nodes = (
"683 -242 OFFCURVE",
"536 -240 OFFCURVE",
"358 -303 CURVE SMOOTH",
"233 -347 OFFCURVE",
"141 -351 OFFCURVE",
"69 -316 CURVE SMOOTH",
"24 -295 OFFCURVE",
"0 -259 OFFCURVE",
"0 -212 CURVE SMOOTH",
"0 -185 OFFCURVE",
"4 -174 OFFCURVE",
"21 -162 CURVE SMOOTH",
"56 -137 OFFCURVE",
"107 -140 OFFCURVE",
"107 -168 CURVE SMOOTH",
"107 -175 OFFCURVE",
"98 -197 OFFCURVE",
"88 -216 CURVE SMOOTH",
"82 -228 OFFCURVE",
"68 -244 OFFCURVE",
"69 -251 CURVE SMOOTH",
"73 -273 OFFCURVE",
"125 -285 OFFCURVE",
"176 -281 CURVE SMOOTH",
"213 -278 OFFCURVE",
"276 -267 OFFCURVE",
"317 -254 CURVE SMOOTH",
"526 -193 OFFCURVE",
"563 -186 OFFCURVE",
"643 -185 CURVE SMOOTH",
"740 -185 OFFCURVE",
"818 -198 OFFCURVE",
"1036 -251 CURVE SMOOTH",
"1314 -320 OFFCURVE",
"1425 -313 OFFCURVE",
"1379 -232 CURVE SMOOTH",
"1362 -202 OFFCURVE",
"1362 -187 OFFCURVE",
"1379 -181 CURVE SMOOTH",
"1421 -166 OFFCURVE",
"1486 -194 OFFCURVE",
"1501 -235 CURVE SMOOTH",
"1520 -288 OFFCURVE",
"1488 -319 OFFCURVE",
"1400 -337 CURVE SMOOTH",
"1307 -357 OFFCURVE",
"1214 -352 OFFCURVE",
"1041 -317 CURVE SMOOTH"
);
},
{
closed = 0;
nodes = (
"887 -214 LINE SMOOTH"
);
}
);
width = 1506;
},
{
layerId = "58A037AB-7B5C-4700-A231-207A2D0F9E5C";
paths = (
{
closed = 1;
nodes = (
"683 -242 OFFCURVE",
"536 -240 OFFCURVE",
"358 -303 CURVE SMOOTH",
"233 -347 OFFCURVE",
"141 -351 OFFCURVE",
"69 -316 CURVE SMOOTH",
"24 -295 OFFCURVE",
"0 -259 OFFCURVE",
"0 -212 CURVE SMOOTH",
"0 -185 OFFCURVE",
"4 -174 OFFCURVE",
"21 -162 CURVE SMOOTH",
"56 -137 OFFCURVE",
"107 -140 OFFCURVE",
"107 -168 CURVE SMOOTH",
"107 -175 OFFCURVE",
"98 -197 OFFCURVE",
"88 -216 CURVE SMOOTH",
"82 -228 OFFCURVE",
"68 -244 OFFCURVE",
"69 -251 CURVE SMOOTH",
"73 -273 OFFCURVE",
"125 -285 OFFCURVE",
"176 -281 CURVE SMOOTH",
"213 -278 OFFCURVE",
"276 -267 OFFCURVE",
"317 -254 CURVE SMOOTH",
"526 -193 OFFCURVE",
"563 -186 OFFCURVE",
"643 -185 CURVE SMOOTH",
"740 -185 OFFCURVE",
"818 -198 OFFCURVE",
"1036 -251 CURVE SMOOTH",
"1314 -320 OFFCURVE",
"1425 -313 OFFCURVE",
"1379 -232 CURVE SMOOTH",
"1362 -202 OFFCURVE",
"1362 -187 OFFCURVE",
"1379 -181 CURVE SMOOTH",
"1421 -166 OFFCURVE",
"1486 -194 OFFCURVE",
"1501 -235 CURVE SMOOTH",
"1520 -288 OFFCURVE",
"1488 -319 OFFCURVE",
"1400 -337 CURVE SMOOTH",
"1307 -357 OFFCURVE",
"1214 -352 OFFCURVE",
"1041 -317 CURVE SMOOTH"
);
},
{
closed = 0;
nodes = (
"887 -214 LINE SMOOTH"
);
}
);
width = 1506;
}
);
},
{
export = 0;
glyphname = aple;
lastChange = "2019-02-22 04:33:48 +0000";
layers = (
{
layerId = "4D144F8D-878C-4AC1-82CB-BE7AA35E5AC4";
paths = (
{
closed = 1;
nodes = (
"1 -31 OFFCURVE",
"8 -24 OFFCURVE",
"16 -21 CURVE",
"25 -18 OFFCURVE",
"36 -2 OFFCURVE",
"42 15 CURVE SMOOTH",
"52 45 OFFCURVE",
"54 45 OFFCURVE",
"119 45 CURVE SMOOTH",
"170 44 OFFCURVE",
"182 42 OFFCURVE",
"168 34 CURVE SMOOTH",
"159 29 OFFCURVE",
"144 8 OFFCURVE",
"136 -11 CURVE SMOOTH",
"122 -44 OFFCURVE",
"121 -45 OFFCURVE",
"62 -45 CURVE SMOOTH",
"28 -45 OFFCURVE",
"1 -41 OFFCURVE",
"1 -36 CURVE SMOOTH"
);
}
);
width = 174;
},
{
layerId = "58A037AB-7B5C-4700-A231-207A2D0F9E5C";
paths = (
{
closed = 1;
nodes = (
"1 -31 OFFCURVE",
"8 -24 OFFCURVE",
"16 -21 CURVE",
"25 -18 OFFCURVE",
"36 -2 OFFCURVE",
"42 15 CURVE SMOOTH",
"52 45 OFFCURVE",
"54 45 OFFCURVE",
"119 45 CURVE SMOOTH",
"170 44 OFFCURVE",
"182 42 OFFCURVE",
"168 34 CURVE SMOOTH",
"159 29 OFFCURVE",
"144 8 OFFCURVE",
"136 -11 CURVE SMOOTH",
"122 -44 OFFCURVE",
"121 -45 OFFCURVE",
"62 -45 CURVE SMOOTH",
"28 -45 OFFCURVE",
"1 -41 OFFCURVE",
"1 -36 CURVE SMOOTH"
);
}
);
width = 174;
}
);
},
{
export = 0;
glyphname = ypseli;
lastChange = "2019-02-22 04:33:48 +0000";
layers = (
{
layerId = "4D144F8D-878C-4AC1-82CB-BE7AA35E5AC4";
paths = (
{
closed = 1;
nodes = (
"30 290 LINE",
"74 297 LINE SMOOTH",
"98 301 OFFCURVE",
"139 317 OFFCURVE",
"168 334 CURVE SMOOTH",
"242 377 OFFCURVE",
"269 435 OFFCURVE",
"281 573 CURVE SMOOTH",
"291 692 OFFCURVE",
"315 752 OFFCURVE",
"358 774 CURVE SMOOTH",
"393 792 OFFCURVE",
"415 792 OFFCURVE",
"441 773 CURVE SMOOTH",
"465 756 OFFCURVE",
"470 708 OFFCURVE",
"450 696 CURVE SMOOTH",
"419 678 OFFCURVE",
"407 639 OFFCURVE",
"402 541 CURVE SMOOTH",
"399 485 OFFCURVE",
"392 427 OFFCURVE",
"386 412 CURVE SMOOTH",
"362 352 OFFCURVE",
"277 286 OFFCURVE",
"196 269 CURVE SMOOTH",
"162 262 LINE",
"205 249 LINE SMOOTH",
"256 234 OFFCURVE",
"322 197 OFFCURVE",
"323 184 CURVE SMOOTH",
"325 164 OFFCURVE",
"282 169 OFFCURVE",
"215 201 CURVE SMOOTH"
);
}
);
width = 492;
},
{
associatedMasterId = "4D144F8D-878C-4AC1-82CB-BE7AA35E5AC4";
layerId = "5ED0E9B8-009C-40A3-9049-276921A4C399";
paths = (
{
closed = 1;
nodes = (
"30 290 LINE",
"74 297 LINE SMOOTH",
"98 301 OFFCURVE",
"139 317 OFFCURVE",
"168 334 CURVE SMOOTH",
"242 377 OFFCURVE",
"269 435 OFFCURVE",
"281 573 CURVE SMOOTH",
"291 692 OFFCURVE",
"315 752 OFFCURVE",
"358 774 CURVE SMOOTH",
"393 792 OFFCURVE",
"415 792 OFFCURVE",
"441 773 CURVE SMOOTH",
"465 756 OFFCURVE",
"470 708 OFFCURVE",
"450 696 CURVE SMOOTH",
"419 678 OFFCURVE",
"407 639 OFFCURVE",
"402 541 CURVE SMOOTH",
"399 485 OFFCURVE",
"392 427 OFFCURVE",
"386 412 CURVE SMOOTH",
"362 352 OFFCURVE",
"277 286 OFFCURVE",
"196 269 CURVE SMOOTH",
"162 262 LINE",
"205 249 LINE SMOOTH",
"256 234 OFFCURVE",
"322 197 OFFCURVE",
"323 184 CURVE SMOOTH",
"325 164 OFFCURVE",
"282 169 OFFCURVE",
"215 201 CURVE SMOOTH"
);
}
);
width = 492;
},
{
layerId = "58A037AB-7B5C-4700-A231-207A2D0F9E5C";
paths = (
{
closed = 1;
nodes = (
"30 290 LINE",
"74 297 LINE SMOOTH",
"98 301 OFFCURVE",
"139 317 OFFCURVE",
"168 334 CURVE SMOOTH",
"242 377 OFFCURVE",
"269 435 OFFCURVE",
"281 573 CURVE SMOOTH",
"291 692 OFFCURVE",
"315 752 OFFCURVE",
"358 774 CURVE SMOOTH",
"393 792 OFFCURVE",
"415 792 OFFCURVE",
"441 773 CURVE SMOOTH",
"465 756 OFFCURVE",
"470 708 OFFCURVE",
"450 696 CURVE SMOOTH",
"419 678 OFFCURVE",
"407 639 OFFCURVE",
"402 541 CURVE SMOOTH",
"399 485 OFFCURVE",
"392 427 OFFCURVE",
"386 412 CURVE SMOOTH",
"362 352 OFFCURVE",
"277 286 OFFCURVE",
"196 269 CURVE SMOOTH",
"162 262 LINE",
"205 249 LINE SMOOTH",
"256 234 OFFCURVE",
"322 197 OFFCURVE",
"323 184 CURVE SMOOTH",
"325 164 OFFCURVE",
"282 169 OFFCURVE",
"215 201 CURVE SMOOTH"
);
}
);
width = 492;
}
);
},
{
glyphname = hamili;
lastChange = "2019-02-22 05:04:38 +0000";
layers = (
{
layerId = "4D144F8D-878C-4AC1-82CB-BE7AA35E5AC4";
paths = (
{
closed = 1;
nodes = (
"600 -59 OFFCURVE",
"585 -55 OFFCURVE",
"570 -53 CURVE",
"542 -46 OFFCURVE",
"539 -31 OFFCURVE",
"559 7 CURVE SMOOTH",
"575 38 OFFCURVE",
"574 38 OFFCURVE",
"495 48 CURVE SMOOTH",
"471 51 OFFCURVE",
"417 65 OFFCURVE",
"378 78 CURVE SMOOTH",
"283 111 OFFCURVE",
"232 156 OFFCURVE",
"197 251 CURVE SMOOTH",
"163 345 OFFCURVE",
"137 370 OFFCURVE",
"87 370 CURVE SMOOTH",
"52 370 OFFCURVE",
"45 374 OFFCURVE",
"36 394 CURVE",
"17 434 OFFCURVE",
"43 441 OFFCURVE",
"146 424 CURVE SMOOTH",
"248 407 OFFCURVE",
"316 355 OFFCURVE",
"338 277 CURVE SMOOTH",
"363 187 OFFCURVE",
"436 126 OFFCURVE",
"532 111 CURVE SMOOTH",
"569 105 OFFCURVE",
"570 105 OFFCURVE",
"577 136 CURVE SMOOTH",
"586 178 OFFCURVE",
"597 189 OFFCURVE",
"635 189 CURVE SMOOTH",
"708 189 OFFCURVE",
"722 174 OFFCURVE",
"694 129 CURVE",
"686 117 OFFCURVE",
"682 103 OFFCURVE",
"685 100 CURVE",
"688 97 OFFCURVE",
"764 91 OFFCURVE",
"852 87 CURVE SMOOTH",
"1063 78 OFFCURVE",
"1135 60 OFFCURVE",
"1135 16 CURVE SMOOTH",
"1135 -9 OFFCURVE",
"1122 -12 OFFCURVE",
"1083 3 CURVE SMOOTH",
"1054 14 OFFCURVE",
"1007 18 OFFCURVE",
"864 19 CURVE SMOOTH",
"702 20 OFFCURVE",
"682 19 OFFCURVE",
"682 6 CURVE SMOOTH",
"682 -25 OFFCURVE",
"633 -67 OFFCURVE",
"605 -60 CURVE"
);
}
